<svg width="400" height="400" viewBox="0 0 400 400" fill="none" xmlns="http://www.w3.org/2000/svg">
<path d="M200 387.288C304.554 387.288 389.312 339.143 389.312 279.752C389.312 220.362 304.554 172.216 200 172.216C95.4459 172.216 10.688 220.362 10.688 279.752C10.688 339.143 95.4459 387.288 200 387.288Z" fill="#F5F5F5"/>
<path d="M98.096 298.232C129.969 298.232 155.808 283.4 155.808 265.104C155.808 246.808 129.969 231.976 98.096 231.976C66.2225 231.976 40.384 246.808 40.384 265.104C40.384 283.4 66.2225 298.232 98.096 298.232Z" fill="#E0E0E0"/>
<path d="M164.288 367.616C182.306 367.616 196.912 359.231 196.912 348.888C196.912 338.545 182.306 330.16 164.288 330.16C146.27 330.16 131.664 338.545 131.664 348.888C131.664 359.231 146.27 367.616 164.288 367.616Z" fill="#E0E0E0"/>
<path d="M215.384 350.48H235.656L381.408 266.408L237.792 178.616L171.912 219.856L270.712 277.744L180.592 330.176L215.384 350.48Z" fill="#E0E0E0"/>
<path d="M73.08 244.568L63.416 250.096C63.416 250.096 68.44 234.52 65.936 218.76C64.992 212.808 62.888 209.84 62.152 208.24C61.416 206.64 55.752 196.776 60.888 192.312C66.024 187.848 77.896 196.984 77.08 221.2C76.7275 229.126 75.3837 236.976 73.08 244.568Z" fill="#455A64"/>
<path d="M68.584 247.52C68.5417 247.528 68.4983 247.528 68.456 247.52C68.3602 247.484 68.2824 247.412 68.239 247.319C68.1957 247.227 68.1903 247.121 68.224 247.024C68.224 246.928 71.96 236.904 71.96 220.72C71.96 204.536 63.744 195.984 63.664 195.92C63.6282 195.884 63.5998 195.842 63.5804 195.795C63.561 195.749 63.5511 195.699 63.5511 195.648C63.5511 195.597 63.561 195.547 63.5804 195.501C63.5998 195.454 63.6282 195.412 63.664 195.376C63.7371 195.306 63.8345 195.266 63.936 195.266C64.0374 195.266 64.1349 195.306 64.208 195.376C64.296 195.464 72.728 204.32 72.728 220.736C72.728 237.152 68.976 247.216 68.936 247.312C68.9045 247.378 68.8542 247.432 68.7915 247.469C68.7289 247.506 68.6567 247.524 68.584 247.52Z" fill="white"/>
<path d="M70.944 245.712L54.944 254.952C54.944 254.952 47.696 253.784 48.328 246.88C48.96 239.976 51.928 238.384 48.328 235.304C44.728 232.224 43.736 232.008 43.952 229.032C44.168 226.056 46.16 224.784 47.104 223.616C48.048 222.448 50.68 220.008 48.888 216.416C47.096 212.824 44.664 209.312 48.368 207.712C50.568 206.752 54.248 208.024 56.672 210.68C59.096 213.336 61.08 215.248 63.392 215.888C65.704 216.528 70.544 216.632 70.336 220.688C70.128 224.744 69.072 226.112 70.016 227.888C71.784 231.264 79.568 233.176 70.944 245.712Z" fill="#37474F"/>
<path d="M64.44 249.856C64.3895 249.852 64.3403 249.838 64.2953 249.815C64.2502 249.792 64.2101 249.76 64.1774 249.721C64.1447 249.683 64.12 249.638 64.1046 249.59C64.0893 249.541 64.0836 249.49 64.088 249.44C64.088 249.2 66.08 225.696 50.112 210.08C50.0699 210.046 50.0352 210.004 50.0104 209.957C49.9856 209.909 49.971 209.856 49.9678 209.803C49.9645 209.749 49.9726 209.695 49.9915 209.645C50.0105 209.594 50.0398 209.548 50.0776 209.51C50.1154 209.472 50.1608 209.442 50.2109 209.422C50.2611 209.402 50.3148 209.393 50.3686 209.396C50.4224 209.398 50.475 209.412 50.5232 209.436C50.5713 209.46 50.6139 209.494 50.648 209.536C66.88 225.408 64.88 249.272 64.856 249.536C64.8421 249.633 64.7908 249.721 64.7131 249.781C64.6354 249.84 64.5374 249.867 64.44 249.856Z" fill="white"/>
<path d="M61.832 229.336C61.7308 229.326 61.6376 229.277 61.5719 229.199C61.5062 229.122 61.4733 229.021 61.48 228.92C61.6189 226.967 62.1596 225.063 63.0681 223.329C63.9766 221.594 65.2335 220.066 66.76 218.84C66.8015 218.811 66.8482 218.79 66.8977 218.78C66.9471 218.769 66.9982 218.768 67.048 218.777C67.0978 218.785 67.1453 218.804 67.1879 218.831C67.2305 218.859 67.2672 218.894 67.296 218.936C67.3265 218.977 67.3485 219.023 67.3606 219.072C67.3727 219.121 67.3747 219.173 67.3664 219.223C67.3582 219.273 67.3399 219.321 67.3127 219.364C67.2855 219.406 67.2499 219.443 67.208 219.472C65.7837 220.642 64.6103 222.088 63.758 223.722C62.9057 225.357 62.3921 227.146 62.248 228.984C62.244 229.034 62.23 229.084 62.2069 229.129C62.1837 229.174 62.1519 229.214 62.1133 229.247C62.0746 229.279 62.0298 229.304 61.9816 229.319C61.9333 229.335 61.8825 229.34 61.832 229.336Z" fill="white"/>
<path d="M62.96 233.432C62.9051 233.431 62.8509 233.419 62.8012 233.395C62.7516 233.372 62.7075 233.338 62.672 233.296C62.672 233.256 58.672 228.864 49.552 230.024C49.4459 230.037 49.3391 230.007 49.2551 229.941C49.1711 229.875 49.1167 229.778 49.104 229.672C49.0913 229.566 49.1212 229.459 49.1872 229.375C49.2532 229.291 49.3499 229.237 49.456 229.224C59.008 228.016 63.056 232.568 63.248 232.76C63.2838 232.796 63.3122 232.838 63.3316 232.885C63.351 232.931 63.3609 232.981 63.3609 233.032C63.3609 233.082 63.351 233.133 63.3316 233.179C63.3122 233.226 63.2838 233.268 63.248 233.304C63.2121 233.345 63.1678 233.377 63.1181 233.4C63.0683 233.422 63.0144 233.433 62.96 233.432Z" fill="white"/>
<path d="M99.128 280.648C126.035 280.648 147.848 268.126 147.848 252.68C147.848 237.234 126.035 224.712 99.128 224.712C72.2207 224.712 50.408 237.234 50.408 252.68C50.408 268.126 72.2207 280.648 99.128 280.648Z" fill="#37474F"/>
<path d="M147.848 252.68C147.848 268.128 126.04 280.68 99.128 280.68C72.216 280.68 50.4 268.128 50.4 252.68V260.496C50.4 275.936 72.208 288.456 99.112 288.456C126.016 288.456 147.832 275.936 147.832 260.496V252.68H147.848Z" fill="#253239"/>
<path d="M99.128 277.312C74.144 277.312 53.816 266.264 53.816 252.68C53.816 239.096 74.144 228.048 99.128 228.048C124.112 228.048 144.448 239.096 144.448 252.68C144.448 266.264 124.12 277.312 99.128 277.312ZM99.128 228.896C74.608 228.896 54.656 239.56 54.656 252.68C54.656 265.8 74.608 276.464 99.128 276.464C123.648 276.464 143.6 265.792 143.6 252.68C143.6 239.568 123.656 228.896 99.128 228.896Z" fill="#003415"/>
<path d="M99.128 129.144C74.144 129.144 53.816 118.088 53.816 104.504C53.816 90.9201 74.144 79.8721 99.128 79.8721C124.112 79.8721 144.448 90.9201 144.448 104.504C144.448 118.088 124.12 129.144 99.128 129.144ZM99.128 80.7201C74.608 80.7201 54.656 91.3921 54.656 104.504C54.656 117.616 74.608 128.296 99.128 128.296C123.648 128.296 143.6 117.6 143.6 104.504C143.6 91.4081 123.656 80.7201 99.128 80.7201Z" fill="#003415"/>
<path d="M143.6 252.688V252.68H144.448L143.6 252.688Z" fill="#003415"/>
<path d="M53.816 252.688V252.68H54.664L53.816 252.688Z" fill="#003415"/>
<path d="M144.448 252.68H143.6C143.6 239.56 123.656 228.896 99.128 228.896C74.6 228.896 54.656 239.56 54.656 252.68H53.856V226.736C53.8336 219.65 55.7321 212.691 59.3496 206.599C62.9671 200.506 68.1683 195.508 74.4 192.136L86.776 185.472C87.8783 184.874 88.7987 183.989 89.44 182.911C90.0814 181.833 90.4199 180.602 90.4199 179.348C90.4199 178.094 90.0814 176.863 89.44 175.785C88.7987 174.707 87.8783 173.822 86.776 173.224L74.4 166.56C68.1668 163.196 62.9614 158.207 59.3371 152.122C55.7127 146.036 53.8047 139.083 53.816 132V105.6H54.712V105.976C56.144 118.496 75.632 128.304 99.088 128.304C122.544 128.304 142.04 118.496 143.472 105.976L143.512 105.6H144.408V132C144.428 139.085 142.528 146.043 138.909 152.134C135.29 158.225 130.088 163.222 123.856 166.592L111.472 173.256C110.372 173.856 109.454 174.742 108.814 175.819C108.174 176.897 107.837 178.127 107.837 179.38C107.837 180.633 108.174 181.863 108.814 182.941C109.454 184.018 110.372 184.904 111.472 185.504L123.856 192.168C136.408 199.552 144.28 212.8 144.408 226.768L144.448 252.68ZM99.128 228.048C121.128 228.048 139.512 236.608 143.6 247.92V226.736C143.48 213.072 135.768 200.096 123.48 192.88L111.112 186.224C109.876 185.551 108.845 184.558 108.126 183.349C107.408 182.139 107.028 180.759 107.028 179.352C107.028 177.945 107.408 176.564 108.126 175.355C108.845 174.146 109.876 173.153 111.112 172.48L123.496 165.816C129.589 162.521 134.676 157.637 138.215 151.683C141.755 145.729 143.616 138.927 143.6 132V109.28C139.52 120.664 121.016 129.176 99.128 129.176C77.24 129.176 58.744 120.664 54.656 109.28V132C54.6359 138.933 56.4955 145.742 60.037 151.702C63.5785 157.662 68.6693 162.551 74.768 165.848L87.152 172.512C88.3876 173.185 89.419 174.178 90.1377 175.387C90.8563 176.596 91.2356 177.977 91.2356 179.384C91.2356 180.791 90.8563 182.172 90.1377 183.381C89.419 184.59 88.3876 185.583 87.152 186.256L74.768 192.92C68.6687 196.217 63.5774 201.105 60.0359 207.065C56.4943 213.026 54.6351 219.835 54.656 226.768V247.92C58.744 236.608 77.136 228.048 99.128 228.048Z" fill="#003415"/>
<path d="M102.944 208.184C101.783 207.52 100.469 207.17 99.132 207.17C97.7947 207.17 96.4806 207.52 95.32 208.184C85.24 213.952 58.648 230.072 58.648 239.84C58.648 251.896 76.768 261.672 99.128 261.672C121.488 261.672 139.616 251.896 139.616 239.84C139.616 230.072 113.024 213.952 102.944 208.184Z" fill="#003415"/>
<path opacity="0.3" d="M102.944 208.184C101.783 207.52 100.469 207.17 99.132 207.17C97.7947 207.17 96.4806 207.52 95.32 208.184C85.24 213.952 58.648 230.072 58.648 239.84C58.648 251.896 76.768 261.672 99.128 261.672C121.488 261.672 139.616 251.896 139.616 239.84C139.616 230.072 113.024 213.952 102.944 208.184Z" fill="white"/>
<path d="M99.128 261.672C76.768 261.672 58.648 251.896 58.648 239.84V250.904C58.648 262.96 76.776 272.736 99.128 272.736C121.48 272.736 139.616 262.96 139.616 250.904V239.84C139.616 251.896 121.488 261.672 99.128 261.672Z" fill="#003415"/>
<path d="M58.648 106.016V130.016C58.6343 136.336 60.3315 142.543 63.5597 147.977C66.7879 153.41 71.4267 157.869 76.984 160.88L88.184 166.888C88.352 166.984 88.52 167.08 88.672 167.184C89.072 167.44 89.472 167.688 89.888 167.92C92.178 169.353 94.0655 171.345 95.3727 173.709C96.68 176.073 97.3639 178.731 97.36 181.432V191.832C97.3579 192.314 97.5469 192.778 97.8857 193.121C98.2246 193.465 98.6856 193.66 99.168 193.664C99.6511 193.66 100.113 193.465 100.453 193.122C100.793 192.779 100.984 192.315 100.984 191.832V181.432C100.98 178.732 101.663 176.075 102.969 173.711C104.274 171.347 106.16 169.354 108.448 167.92C108.864 167.688 109.248 167.44 109.672 167.184C109.824 167.08 109.992 166.984 110.16 166.888L121.32 160.88C126.877 157.869 131.516 153.41 134.744 147.977C137.972 142.543 139.67 136.336 139.656 130.016V106.016H58.648Z" fill="#003415"/>
<path d="M100.944 199.288C100.942 198.929 100.835 198.579 100.634 198.281C100.434 197.984 100.149 197.752 99.8174 197.616C99.4855 197.48 99.1206 197.445 98.7688 197.516C98.4171 197.587 98.0943 197.76 97.8411 198.015C97.5879 198.269 97.4158 198.593 97.3463 198.945C97.2769 199.297 97.3133 199.661 97.451 199.993C97.5887 200.324 97.8215 200.607 98.1199 200.806C98.4184 201.006 98.7692 201.112 99.128 201.112C99.6097 201.108 100.07 200.914 100.41 200.573C100.75 200.231 100.942 199.77 100.944 199.288Z" fill="#003415"/>
<path opacity="0.3" d="M58.648 106.016V130.016C58.6343 136.336 60.3315 142.543 63.5597 147.977C66.7879 153.41 71.4267 157.869 76.984 160.88L88.184 166.888C88.352 166.984 88.52 167.08 88.672 167.184C89.072 167.44 89.472 167.688 89.888 167.92C92.178 169.353 94.0655 171.345 95.3727 173.709C96.68 176.073 97.3639 178.731 97.36 181.432V191.832C97.3579 192.314 97.5469 192.778 97.8857 193.121C98.2246 193.465 98.6856 193.66 99.168 193.664C99.6511 193.66 100.113 193.465 100.453 193.122C100.793 192.779 100.984 192.315 100.984 191.832V181.432C100.98 178.732 101.663 176.075 102.969 173.711C104.274 171.347 106.16 169.354 108.448 167.92C108.864 167.688 109.248 167.44 109.672 167.184C109.824 167.08 109.992 166.984 110.16 166.888L121.32 160.88C126.877 157.869 131.516 153.41 134.744 147.977C137.972 142.543 139.67 136.336 139.656 130.016V106.016H58.648Z" fill="white"/>
<g opacity="0.3">
<path d="M100.944 199.288C100.942 198.929 100.835 198.579 100.634 198.281C100.434 197.984 100.149 197.752 99.8174 197.616C99.4855 197.48 99.1206 197.445 98.7688 197.516C98.4171 197.587 98.0943 197.76 97.8411 198.015C97.5879 198.269 97.4158 198.593 97.3463 198.945C97.2769 199.297 97.3133 199.661 97.451 199.993C97.5887 200.324 97.8215 200.607 98.1199 200.806C98.4184 201.006 98.7692 201.112 99.128 201.112C99.6097 201.108 100.07 200.914 100.41 200.573C100.75 200.231 100.942 199.77 100.944 199.288Z" fill="white"/>
</g>
<path d="M99.128 127.848C121.489 127.848 139.616 118.073 139.616 106.016C139.616 93.9585 121.489 84.184 99.128 84.184C76.7671 84.184 58.64 93.9585 58.64 106.016C58.64 118.073 76.7671 127.848 99.128 127.848Z" fill="#003415"/>
<g style="mix-blend-mode:overlay" opacity="0.5">
<path d="M95.8 185.848L87.928 192.512C79.928 199.248 75 212.408 75 226.736V272.384C72.5549 271.548 70.175 270.532 67.88 269.344V226.736C67.88 212.408 73.568 199.248 82.688 192.512L91.688 185.848C95.44 183.072 95.44 175.616 91.688 172.856L82.688 166.192C73.6 159.456 67.88 146.288 67.88 132V106.016H75V132C75 146.328 79.968 159.496 87.928 166.232L95.8 172.896C99.072 175.616 99.072 183.072 95.8 185.848Z" fill="white"/>
</g>
<path d="M99.128 132.472C126.035 132.472 147.848 119.95 147.848 104.504C147.848 89.0577 126.035 76.536 99.128 76.536C72.2207 76.536 50.408 89.0577 50.408 104.504C50.408 119.95 72.2207 132.472 99.128 132.472Z" fill="#37474F"/>
<path d="M147.848 104.504C147.848 119.952 126.04 132.504 99.128 132.504C72.216 132.504 50.4 119.952 50.4 104.504V112.32C50.4 127.768 72.208 140.32 99.112 140.32C126.016 140.32 147.832 127.8 147.832 112.32V104.504H147.848Z" fill="#253239"/>
<path d="M258.552 182.368V151.504L215.4 126.336V95.472L172.256 70.296V224.608L215.4 249.784L258.552 274.952L301.696 300.128V207.544L258.552 182.368Z" fill="#003415"/>
<path opacity="0.3" d="M258.552 182.368V213.232L301.696 238.408V207.544L258.552 182.368Z" fill="white"/>
<path d="M301.696 207.544V238.408L258.552 263.584V294.44L215.4 319.616V350.48L258.552 325.304L301.696 300.128L344.848 274.952V182.368L301.696 207.544Z" fill="#003415"/>
<path opacity="0.1" d="M301.696 207.544V238.408L258.552 263.584V294.44L215.4 319.616V350.48L258.552 325.304L301.696 300.128L344.848 274.952V182.368L301.696 207.544Z" fill="white"/>
<path d="M215.4 95.472L172.256 70.296L215.4 45.12L258.552 70.296L215.4 95.472Z" fill="#003415"/>
<path opacity="0.7" d="M215.4 95.472L172.256 70.296L215.4 45.12L258.552 70.296L215.4 95.472Z" fill="white"/>
<path d="M215.4 126.336V95.472L258.552 70.296V101.16L215.4 126.336Z" fill="#003415"/>
<path opacity="0.1" d="M215.4 126.336V95.472L258.552 70.296V101.16L215.4 126.336Z" fill="black"/>
<path d="M258.552 151.504L215.4 126.336L258.552 101.16L301.696 126.336L258.552 151.504Z" fill="#003415"/>
<path d="M258.552 182.368V151.504L301.696 126.336V157.192L258.552 182.368Z" fill="#003415"/>
<path opacity="0.7" d="M258.552 151.504L215.4 126.336L258.552 101.16L301.696 126.336L258.552 151.504Z" fill="white"/>
<path opacity="0.1" d="M258.552 182.368V151.504L301.696 126.336V157.192L258.552 182.368Z" fill="black"/>
<path d="M301.696 207.544L258.552 182.368L301.696 157.192L344.848 182.368L301.696 207.544Z" fill="#003415"/>
<g opacity="0.7">
<path d="M301.696 207.544L258.552 182.368L301.696 157.192L344.848 182.368L301.696 207.544Z" fill="white"/>
</g>
<path d="M258.552 263.584L301.696 238.408L258.552 213.232L215.4 238.408L258.552 263.584Z" fill="#003415"/>
<path opacity="0.7" d="M258.552 263.584L301.696 238.408L258.552 213.232L215.4 238.408L258.552 263.584Z" fill="white"/>
<path d="M258.552 294.44V263.584L215.4 238.408V269.272L258.552 294.44Z" fill="#003415"/>
<path opacity="0.3" d="M258.552 294.44V263.584L215.4 238.408V269.272L258.552 294.44Z" fill="white"/>
<path d="M215.4 319.616L258.552 294.44L215.4 269.272L172.256 294.44L215.4 319.616Z" fill="#003415"/>
<path d="M215.4 350.48V319.616L172.256 294.44V325.304L215.4 350.48Z" fill="#003415"/>
<path opacity="0.7" d="M215.4 319.616L258.552 294.44L215.4 269.272L172.256 294.44L215.4 319.616Z" fill="white"/>
<path opacity="0.3" d="M215.4 350.48V319.616L172.256 294.44V325.304L215.4 350.48Z" fill="white"/>
<path d="M250.208 289.576L207.064 314.752L180.6 299.312L223.752 274.136L250.208 289.576Z" fill="#003415"/>
<path opacity="0.4" d="M250.208 289.576L207.064 314.752L180.6 299.312L223.752 274.136L250.208 289.576Z" fill="white"/>
<path d="M207.064 314.752V345.608L180.592 330.176V299.312H180.6L207.064 314.752Z" fill="#003415"/>
<path d="M293.36 233.536L250.208 258.712L223.752 243.28L266.896 218.104L293.36 233.536Z" fill="#003415"/>
<path opacity="0.4" d="M293.36 233.536L250.208 258.712L223.752 243.28L266.896 218.104L293.36 233.536Z" fill="white"/>
<path d="M250.208 258.712V289.576L223.744 274.136V243.28H223.752L250.208 258.712Z" fill="#003415"/>
<path d="M293.36 202.68V233.536L266.888 218.104V187.24H266.896L293.36 202.68Z" fill="#003415"/>
<path d="M293.36 202.68V233.536L266.888 218.104V187.24H266.896L293.36 202.68Z" fill="#003415"/>
<path d="M223.744 121.464L266.888 146.64L293.352 131.208L250.2 106.024L223.744 121.464Z" fill="#003415"/>
<g style="mix-blend-mode:overlay" opacity="0.5">
<path d="M223.744 121.464L266.888 146.64L293.352 131.208L250.2 106.024L223.744 121.464Z" fill="white"/>
</g>
<path d="M266.888 146.64V177.504L293.36 162.064V131.208H293.352L266.888 146.64Z" fill="#003415"/>
<path opacity="0.3" d="M266.888 146.64V177.504L293.36 162.064V131.208H293.352L266.888 146.64Z" fill="black"/>
<path d="M180.592 65.4241L223.744 90.6081L250.2 75.1681L207.056 49.9921L180.592 65.4241Z" fill="#003415"/>
<g style="mix-blend-mode:overlay" opacity="0.5">
<path d="M180.592 65.4241L223.744 90.6081L250.2 75.1681L207.056 49.9921L180.592 65.4241Z" fill="white"/>
</g>
<path d="M223.744 90.6081V121.464L250.208 106.024V75.1681H250.2L223.744 90.6081Z" fill="#003415"/>
<path opacity="0.3" d="M223.744 90.6081V121.464L250.208 106.024V75.1681H250.2L223.744 90.6081Z" fill="black"/>
<path d="M301.696 166.936L293.352 162.056L266.888 177.496L275.24 182.368L266.896 187.24L293.36 202.672L301.696 197.808L328.16 182.368L301.696 166.936Z" fill="#003415"/>
<path opacity="0.4" d="M301.696 166.936L293.352 162.056L266.888 177.496L275.24 182.368L266.896 187.24L293.36 202.672L301.696 197.808L328.16 182.368L301.696 166.936Z" fill="white"/>
<path d="M198.216 60.656C198.149 60.6554 198.083 60.6389 198.024 60.608L196.424 59.664C196.38 59.6384 196.342 59.6044 196.311 59.564C196.281 59.5235 196.259 59.4774 196.246 59.4283C196.233 59.3793 196.231 59.3282 196.238 59.278C196.245 59.2278 196.262 59.1796 196.288 59.136C196.338 59.0485 196.421 58.9842 196.518 58.9573C196.616 58.9303 196.72 58.9428 196.808 58.992L198.408 59.936C198.496 59.9879 198.56 60.0721 198.587 60.1707C198.614 60.2694 198.602 60.3746 198.552 60.464C198.519 60.5235 198.47 60.5727 198.411 60.6066C198.351 60.6404 198.284 60.6575 198.216 60.656Z" fill="#003415"/>
<path d="M229.904 79.152C229.836 79.1523 229.769 79.1328 229.712 79.096L226.512 77.248C226.468 77.2228 226.429 77.1891 226.398 77.1489C226.367 77.1088 226.344 77.0629 226.331 77.0138C226.317 76.9648 226.314 76.9136 226.32 76.8632C226.327 76.8128 226.343 76.7641 226.368 76.72C226.393 76.6759 226.427 76.6372 226.467 76.606C226.507 76.5749 226.553 76.552 226.602 76.5386C226.651 76.5253 226.702 76.5217 226.753 76.5281C226.803 76.5345 226.852 76.5508 226.896 76.576L230.096 78.424C230.14 78.4496 230.178 78.4836 230.209 78.524C230.239 78.5645 230.261 78.6106 230.274 78.6597C230.287 78.7088 230.289 78.7599 230.282 78.81C230.275 78.8602 230.258 78.9085 230.232 78.952C230.201 79.0123 230.154 79.0629 230.096 79.0982C230.038 79.1335 229.972 79.1521 229.904 79.152ZM223.568 75.448C223.501 75.4474 223.435 75.4309 223.376 75.4L220.176 73.552C220.132 73.5268 220.093 73.4931 220.062 73.4529C220.031 73.4128 220.008 73.3669 219.995 73.3178C219.981 73.2688 219.978 73.2176 219.984 73.1672C219.991 73.1168 220.007 73.0681 220.032 73.024C220.057 72.9799 220.091 72.9411 220.131 72.91C220.171 72.8789 220.217 72.856 220.266 72.8426C220.315 72.8293 220.366 72.8257 220.417 72.8321C220.467 72.8385 220.516 72.8548 220.56 72.88L223.76 74.728C223.804 74.7536 223.842 74.7876 223.873 74.828C223.903 74.8685 223.925 74.9146 223.938 74.9637C223.951 75.0128 223.953 75.0639 223.946 75.114C223.939 75.1642 223.922 75.2125 223.896 75.256C223.865 75.3154 223.817 75.3649 223.759 75.3988C223.701 75.4327 223.635 75.4498 223.568 75.448ZM217.232 71.752C217.165 71.7523 217.099 71.7358 217.04 71.704L213.84 69.856C213.751 69.8026 213.687 69.717 213.66 69.617C213.633 69.5171 213.646 69.4106 213.696 69.32C213.722 69.2762 213.756 69.238 213.796 69.2075C213.836 69.1769 213.883 69.1547 213.932 69.142C213.981 69.1294 214.032 69.1266 214.082 69.1338C214.132 69.141 214.18 69.1581 214.224 69.184L217.424 71.032C217.499 71.0735 217.558 71.1388 217.592 71.2176C217.625 71.2964 217.631 71.3842 217.609 71.467C217.587 71.5498 217.538 71.6228 217.47 71.6744C217.401 71.7261 217.318 71.7534 217.232 71.752ZM210.896 68.056C210.828 68.0583 210.76 68.0387 210.704 68L207.504 66.152C207.416 66.1002 207.352 66.0159 207.325 65.9173C207.298 65.8187 207.31 65.7134 207.36 65.624C207.385 65.5805 207.418 65.5424 207.458 65.512C207.498 65.4815 207.543 65.4593 207.591 65.4466C207.64 65.434 207.69 65.4311 207.74 65.4382C207.789 65.4453 207.837 65.4622 207.88 65.488L211.08 67.336C211.167 67.3891 211.229 67.474 211.255 67.5725C211.28 67.671 211.266 67.7756 211.216 67.864C211.183 67.9201 211.136 67.967 211.08 68.0005C211.024 68.034 210.961 68.0531 210.896 68.056ZM204.552 64.36C204.484 64.3603 204.417 64.3408 204.36 64.304L201.16 62.456C201.073 62.4028 201.011 62.318 200.985 62.2195C200.96 62.121 200.974 62.0165 201.024 61.928C201.074 61.8404 201.157 61.7762 201.254 61.7493C201.352 61.7223 201.456 61.7348 201.544 61.784L204.744 63.632C204.832 63.6838 204.896 63.7681 204.923 63.8667C204.95 63.9653 204.938 64.0706 204.888 64.16C204.855 64.2204 204.806 64.2708 204.747 64.306C204.688 64.3412 204.621 64.3598 204.552 64.36Z" fill="#003415"/>
<path d="M234.688 81.9441C234.62 81.9443 234.553 81.9249 234.496 81.8881L232.896 80.9441C232.852 80.9185 232.814 80.8845 232.783 80.844C232.753 80.8036 232.731 80.7575 232.718 80.7084C232.705 80.6593 232.703 80.6082 232.71 80.558C232.717 80.5078 232.734 80.4596 232.76 80.416C232.784 80.3717 232.817 80.3328 232.856 80.3017C232.896 80.2706 232.942 80.248 232.99 80.2352C233.039 80.2225 233.09 80.2199 233.14 80.2276C233.19 80.2353 233.237 80.2532 233.28 80.28L234.88 81.216C234.968 81.2679 235.032 81.3521 235.059 81.4508C235.086 81.5494 235.074 81.6546 235.024 81.7441C234.991 81.8044 234.942 81.8548 234.883 81.89C234.824 81.9252 234.757 81.9439 234.688 81.9441Z" fill="#003415"/>
<g opacity="0.3">
<path d="M198.216 60.656C198.149 60.6554 198.083 60.6389 198.024 60.608L196.424 59.664C196.38 59.6384 196.342 59.6044 196.311 59.564C196.281 59.5235 196.259 59.4774 196.246 59.4283C196.233 59.3793 196.231 59.3282 196.238 59.278C196.245 59.2278 196.262 59.1796 196.288 59.136C196.338 59.0485 196.421 58.9842 196.518 58.9573C196.616 58.9303 196.72 58.9428 196.808 58.992L198.408 59.936C198.496 59.9879 198.56 60.0721 198.587 60.1707C198.614 60.2694 198.602 60.3746 198.552 60.464C198.519 60.5235 198.47 60.5727 198.411 60.6066C198.351 60.6404 198.284 60.6575 198.216 60.656Z" fill="black"/>
<path d="M229.904 79.152C229.836 79.1523 229.769 79.1328 229.712 79.096L226.512 77.248C226.468 77.2228 226.429 77.1891 226.398 77.1489C226.367 77.1088 226.344 77.0629 226.331 77.0138C226.317 76.9648 226.314 76.9136 226.32 76.8632C226.327 76.8128 226.343 76.7641 226.368 76.72C226.393 76.6759 226.427 76.6372 226.467 76.606C226.507 76.5749 226.553 76.552 226.602 76.5386C226.651 76.5253 226.702 76.5217 226.753 76.5281C226.803 76.5345 226.852 76.5508 226.896 76.576L230.096 78.424C230.14 78.4496 230.178 78.4836 230.209 78.524C230.239 78.5645 230.261 78.6106 230.274 78.6597C230.287 78.7088 230.289 78.7599 230.282 78.81C230.275 78.8602 230.258 78.9085 230.232 78.952C230.201 79.0123 230.154 79.0629 230.096 79.0982C230.038 79.1335 229.972 79.1521 229.904 79.152ZM223.568 75.448C223.501 75.4474 223.435 75.4309 223.376 75.4L220.176 73.552C220.132 73.5268 220.093 73.4931 220.062 73.4529C220.031 73.4128 220.008 73.3669 219.995 73.3178C219.981 73.2688 219.978 73.2176 219.984 73.1672C219.991 73.1168 220.007 73.0681 220.032 73.024C220.057 72.9799 220.091 72.9411 220.131 72.91C220.171 72.8789 220.217 72.856 220.266 72.8426C220.315 72.8293 220.366 72.8257 220.417 72.8321C220.467 72.8385 220.516 72.8548 220.56 72.88L223.76 74.728C223.804 74.7536 223.842 74.7876 223.873 74.828C223.903 74.8685 223.925 74.9146 223.938 74.9637C223.951 75.0128 223.953 75.0639 223.946 75.114C223.939 75.1642 223.922 75.2125 223.896 75.256C223.865 75.3154 223.817 75.3649 223.759 75.3988C223.701 75.4327 223.635 75.4498 223.568 75.448ZM217.232 71.752C217.165 71.7523 217.099 71.7358 217.04 71.704L213.84 69.856C213.751 69.8026 213.687 69.717 213.66 69.617C213.633 69.5171 213.646 69.4106 213.696 69.32C213.722 69.2762 213.756 69.238 213.796 69.2075C213.836 69.1769 213.883 69.1547 213.932 69.142C213.981 69.1294 214.032 69.1266 214.082 69.1338C214.132 69.141 214.18 69.1581 214.224 69.184L217.424 71.032C217.499 71.0735 217.558 71.1388 217.592 71.2176C217.625 71.2964 217.631 71.3842 217.609 71.467C217.587 71.5498 217.538 71.6228 217.47 71.6744C217.401 71.7261 217.318 71.7534 217.232 71.752ZM210.896 68.056C210.828 68.0583 210.76 68.0387 210.704 68L207.504 66.152C207.416 66.1002 207.352 66.0159 207.325 65.9173C207.298 65.8187 207.31 65.7134 207.36 65.624C207.385 65.5805 207.418 65.5424 207.458 65.512C207.498 65.4815 207.543 65.4593 207.591 65.4466C207.64 65.434 207.69 65.4311 207.74 65.4382C207.789 65.4453 207.837 65.4622 207.88 65.488L211.08 67.336C211.167 67.3891 211.229 67.474 211.255 67.5725C211.28 67.671 211.266 67.7756 211.216 67.864C211.183 67.9201 211.136 67.967 211.08 68.0005C211.024 68.034 210.961 68.0531 210.896 68.056ZM204.552 64.36C204.484 64.3603 204.417 64.3408 204.36 64.304L201.16 62.456C201.073 62.4028 201.011 62.318 200.985 62.2195C200.96 62.121 200.974 62.0165 201.024 61.928C201.074 61.8404 201.157 61.7762 201.254 61.7493C201.352 61.7223 201.456 61.7348 201.544 61.784L204.744 63.632C204.832 63.6838 204.896 63.7681 204.923 63.8667C204.95 63.9653 204.938 64.0706 204.888 64.16C204.855 64.2204 204.806 64.2708 204.747 64.306C204.688 64.3412 204.621 64.3598 204.552 64.36Z" fill="black"/>
<path d="M234.688 81.9441C234.62 81.9443 234.553 81.9249 234.496 81.8881L232.896 80.9441C232.852 80.9185 232.814 80.8845 232.783 80.844C232.753 80.8036 232.731 80.7575 232.718 80.7084C232.705 80.6593 232.703 80.6082 232.71 80.558C232.717 80.5078 232.734 80.4596 232.76 80.416C232.784 80.3717 232.817 80.3328 232.856 80.3017C232.896 80.2706 232.942 80.248 232.99 80.2352C233.039 80.2225 233.09 80.2199 233.14 80.2276C233.19 80.2353 233.237 80.2532 233.28 80.28L234.88 81.216C234.968 81.2679 235.032 81.3521 235.059 81.4508C235.086 81.5494 235.074 81.6546 235.024 81.7441C234.991 81.8044 234.942 81.8548 234.883 81.89C234.824 81.9252 234.757 81.9439 234.688 81.9441Z" fill="black"/>
</g>
<path d="M241.136 116.56C241.068 116.56 241.001 116.541 240.944 116.504L239.344 115.56C239.3 115.534 239.262 115.5 239.231 115.46C239.201 115.42 239.179 115.373 239.166 115.324C239.153 115.275 239.151 115.224 239.158 115.174C239.165 115.124 239.182 115.076 239.208 115.032C239.233 114.989 239.266 114.95 239.306 114.92C239.346 114.89 239.391 114.867 239.439 114.855C239.488 114.842 239.538 114.839 239.588 114.846C239.637 114.853 239.685 114.87 239.728 114.896L241.328 115.84C241.403 115.881 241.462 115.947 241.495 116.026C241.529 116.104 241.535 116.192 241.513 116.275C241.491 116.358 241.442 116.431 241.374 116.482C241.305 116.534 241.222 116.561 241.136 116.56Z" fill="#003415"/>
<path d="M272.856 135.072C272.79 135.073 272.726 135.054 272.672 135.016L269.472 133.168C269.428 133.143 269.389 133.109 269.358 133.069C269.327 133.029 269.304 132.983 269.291 132.934C269.277 132.885 269.274 132.834 269.28 132.783C269.287 132.733 269.303 132.684 269.328 132.64C269.353 132.596 269.387 132.557 269.427 132.526C269.467 132.495 269.513 132.472 269.562 132.459C269.611 132.445 269.662 132.442 269.713 132.448C269.763 132.454 269.812 132.471 269.856 132.496L273.056 134.352C273.144 134.404 273.208 134.488 273.235 134.587C273.262 134.685 273.25 134.791 273.2 134.88C273.165 134.94 273.114 134.989 273.054 135.022C272.993 135.056 272.925 135.073 272.856 135.072ZM266.512 131.368C266.445 131.367 266.379 131.351 266.32 131.32L263.12 129.464C263.031 129.413 262.966 129.329 262.939 129.23C262.912 129.131 262.925 129.025 262.976 128.936C263.027 128.847 263.111 128.782 263.21 128.755C263.309 128.728 263.415 128.741 263.504 128.792L266.704 130.648C266.779 130.689 266.838 130.755 266.871 130.834C266.905 130.912 266.911 131 266.889 131.083C266.867 131.166 266.818 131.239 266.75 131.29C266.681 131.342 266.598 131.369 266.512 131.368ZM260.168 127.664C260.101 127.663 260.035 127.647 259.976 127.616L256.776 125.76C256.688 125.708 256.624 125.624 256.597 125.525C256.57 125.427 256.582 125.321 256.632 125.232C256.658 125.188 256.692 125.15 256.732 125.119C256.772 125.089 256.819 125.067 256.868 125.054C256.917 125.041 256.968 125.039 257.018 125.046C257.068 125.053 257.116 125.07 257.16 125.096L260.36 126.944C260.448 126.996 260.513 127.08 260.539 127.179C260.566 127.277 260.554 127.383 260.504 127.472C260.471 127.531 260.422 127.581 260.363 127.615C260.303 127.648 260.236 127.665 260.168 127.664ZM253.824 124C253.757 123.999 253.691 123.983 253.632 123.952L250.432 122.104C250.344 122.052 250.28 121.968 250.253 121.869C250.226 121.771 250.238 121.665 250.288 121.576C250.313 121.532 250.346 121.493 250.387 121.461C250.427 121.43 250.473 121.407 250.522 121.393C250.571 121.38 250.622 121.377 250.673 121.383C250.723 121.39 250.772 121.406 250.816 121.432L254.016 123.28C254.104 123.332 254.168 123.416 254.195 123.515C254.222 123.613 254.21 123.719 254.16 123.808C254.127 123.867 254.078 123.917 254.019 123.951C253.959 123.984 253.892 124.001 253.824 124ZM247.48 120.304C247.412 120.304 247.345 120.285 247.288 120.248L244.088 118.4C244.044 118.375 244.005 118.341 243.974 118.301C243.943 118.261 243.92 118.215 243.907 118.166C243.893 118.117 243.89 118.066 243.896 118.015C243.903 117.965 243.919 117.916 243.944 117.872C243.969 117.828 244.003 117.789 244.043 117.758C244.083 117.727 244.129 117.704 244.178 117.691C244.227 117.677 244.278 117.674 244.329 117.68C244.379 117.687 244.428 117.703 244.472 117.728L247.672 119.576C247.761 119.629 247.825 119.715 247.852 119.815C247.879 119.915 247.866 120.021 247.816 120.112C247.777 120.163 247.726 120.203 247.667 120.23C247.608 120.256 247.544 120.268 247.48 120.264V120.304Z" fill="#003415"/>
<path d="M277.648 137.864C277.581 137.863 277.515 137.847 277.456 137.816L275.856 136.872C275.812 136.846 275.774 136.812 275.743 136.772C275.713 136.732 275.691 136.685 275.678 136.636C275.665 136.587 275.663 136.536 275.67 136.486C275.677 136.436 275.694 136.388 275.72 136.344C275.744 136.3 275.777 136.261 275.816 136.23C275.856 136.199 275.901 136.175 275.95 136.162C275.998 136.149 276.049 136.145 276.099 136.152C276.149 136.158 276.197 136.175 276.24 136.2L277.84 137.144C277.884 137.17 277.922 137.204 277.953 137.244C277.983 137.285 278.005 137.331 278.018 137.38C278.031 137.429 278.033 137.48 278.026 137.53C278.019 137.58 278.002 137.628 277.976 137.672C277.942 137.729 277.894 137.777 277.837 137.81C277.779 137.844 277.714 137.862 277.648 137.864Z" fill="#003415"/>
<g opacity="0.3">
<path d="M241.136 116.56C241.068 116.56 241.001 116.541 240.944 116.504L239.344 115.56C239.3 115.534 239.262 115.5 239.231 115.46C239.201 115.42 239.179 115.373 239.166 115.324C239.153 115.275 239.151 115.224 239.158 115.174C239.165 115.124 239.182 115.076 239.208 115.032C239.233 114.989 239.266 114.95 239.306 114.92C239.346 114.89 239.391 114.867 239.439 114.855C239.488 114.842 239.538 114.839 239.588 114.846C239.637 114.853 239.685 114.87 239.728 114.896L241.328 115.84C241.403 115.881 241.462 115.947 241.495 116.026C241.529 116.104 241.535 116.192 241.513 116.275C241.491 116.358 241.442 116.431 241.374 116.482C241.305 116.534 241.222 116.561 241.136 116.56Z" fill="black"/>
<path d="M272.856 135.072C272.79 135.073 272.726 135.054 272.672 135.016L269.472 133.168C269.428 133.143 269.389 133.109 269.358 133.069C269.327 133.029 269.304 132.983 269.291 132.934C269.277 132.885 269.274 132.834 269.28 132.783C269.286 132.733 269.303 132.684 269.328 132.64C269.353 132.596 269.387 132.557 269.427 132.526C269.467 132.495 269.513 132.472 269.562 132.459C269.611 132.445 269.662 132.442 269.713 132.448C269.763 132.454 269.812 132.471 269.856 132.496L273.056 134.352C273.144 134.404 273.208 134.488 273.235 134.587C273.262 134.685 273.25 134.791 273.2 134.88C273.165 134.94 273.114 134.989 273.054 135.022C272.993 135.056 272.925 135.073 272.856 135.072ZM266.512 131.368C266.445 131.367 266.379 131.351 266.32 131.32L263.12 129.464C263.031 129.413 262.966 129.329 262.939 129.23C262.912 129.131 262.925 129.025 262.976 128.936C263.027 128.847 263.111 128.782 263.21 128.755C263.309 128.728 263.415 128.741 263.504 128.792L266.704 130.648C266.779 130.689 266.838 130.755 266.871 130.834C266.905 130.912 266.911 131 266.889 131.083C266.867 131.166 266.818 131.239 266.75 131.29C266.681 131.342 266.598 131.369 266.512 131.368ZM260.168 127.664C260.101 127.663 260.035 127.647 259.976 127.616L256.776 125.76C256.688 125.708 256.623 125.624 256.597 125.525C256.57 125.427 256.582 125.321 256.632 125.232C256.658 125.188 256.692 125.15 256.732 125.119C256.772 125.089 256.819 125.067 256.868 125.054C256.917 125.041 256.968 125.039 257.018 125.046C257.068 125.053 257.116 125.07 257.16 125.096L260.36 126.944C260.448 126.996 260.512 127.08 260.539 127.179C260.566 127.277 260.554 127.383 260.504 127.472C260.471 127.531 260.422 127.581 260.363 127.615C260.303 127.648 260.236 127.665 260.168 127.664ZM253.824 124C253.757 123.999 253.691 123.983 253.632 123.952L250.432 122.104C250.344 122.052 250.279 121.968 250.253 121.869C250.226 121.771 250.238 121.665 250.288 121.576C250.313 121.532 250.346 121.493 250.387 121.461C250.427 121.43 250.473 121.407 250.522 121.393C250.571 121.38 250.622 121.377 250.673 121.383C250.723 121.39 250.772 121.406 250.816 121.432L254.016 123.28C254.104 123.332 254.168 123.416 254.195 123.515C254.222 123.613 254.21 123.719 254.16 123.808C254.127 123.867 254.078 123.917 254.019 123.951C253.959 123.984 253.892 124.001 253.824 124ZM247.48 120.304C247.412 120.304 247.345 120.285 247.288 120.248L244.088 118.4C244.044 118.375 244.005 118.341 243.974 118.301C243.943 118.261 243.92 118.215 243.907 118.166C243.893 118.117 243.89 118.066 243.896 118.015C243.902 117.965 243.919 117.916 243.944 117.872C243.969 117.828 244.003 117.789 244.043 117.758C244.083 117.727 244.129 117.704 244.178 117.691C244.227 117.677 244.278 117.674 244.329 117.68C244.379 117.687 244.428 117.703 244.472 117.728L247.672 119.576C247.761 119.629 247.825 119.715 247.852 119.815C247.879 119.915 247.866 120.021 247.816 120.112C247.777 120.163 247.726 120.203 247.667 120.23C247.608 120.256 247.544 120.268 247.48 120.264V120.304Z" fill="black"/>
<path d="M277.648 137.864C277.581 137.863 277.515 137.847 277.456 137.816L275.856 136.872C275.812 136.846 275.774 136.812 275.743 136.772C275.713 136.732 275.691 136.685 275.678 136.636C275.665 136.587 275.663 136.536 275.67 136.486C275.677 136.436 275.694 136.388 275.72 136.344C275.744 136.3 275.777 136.261 275.816 136.23C275.856 136.199 275.901 136.175 275.95 136.162C275.998 136.149 276.049 136.145 276.099 136.152C276.149 136.158 276.197 136.175 276.24 136.2L277.84 137.144C277.884 137.17 277.922 137.204 277.953 137.244C277.983 137.285 278.005 137.331 278.018 137.38C278.031 137.429 278.033 137.48 278.026 137.53C278.019 137.58 278.002 137.628 277.976 137.672C277.942 137.729 277.894 137.777 277.837 137.81C277.779 137.844 277.714 137.862 277.648 137.864Z" fill="black"/>
</g>
<path d="M280.128 195.336C280.062 195.334 279.997 195.316 279.939 195.282C279.882 195.249 279.834 195.201 279.8 195.144C279.75 195.056 279.736 194.951 279.761 194.853C279.787 194.754 279.849 194.669 279.936 194.616L281.536 193.672C281.624 193.623 281.728 193.61 281.826 193.637C281.923 193.664 282.006 193.729 282.056 193.816C282.106 193.905 282.118 194.011 282.091 194.109C282.064 194.208 282 194.292 281.912 194.344L280.312 195.288C280.256 195.319 280.192 195.336 280.128 195.336Z" fill="#003415"/>
<path d="M285.416 192.256C285.349 192.257 285.283 192.239 285.225 192.206C285.167 192.172 285.12 192.123 285.088 192.064C285.061 192.021 285.043 191.972 285.035 191.922C285.027 191.872 285.03 191.82 285.043 191.771C285.055 191.721 285.078 191.675 285.109 191.635C285.14 191.594 285.179 191.561 285.224 191.536L288.888 189.392C288.932 189.366 288.981 189.35 289.031 189.343C289.082 189.337 289.133 189.34 289.182 189.353C289.231 189.367 289.277 189.39 289.317 189.421C289.358 189.453 289.391 189.492 289.416 189.536C289.466 189.625 289.478 189.731 289.451 189.829C289.424 189.928 289.36 190.012 289.272 190.064L285.6 192.2C285.545 192.235 285.481 192.255 285.416 192.256ZM292.752 187.976C292.684 187.976 292.618 187.958 292.559 187.924C292.5 187.891 292.451 187.842 292.416 187.784C292.366 187.695 292.354 187.589 292.381 187.491C292.408 187.392 292.472 187.308 292.56 187.256L296.224 185.112C296.313 185.061 296.419 185.048 296.518 185.075C296.617 185.102 296.701 185.167 296.752 185.256C296.803 185.345 296.816 185.451 296.789 185.55C296.762 185.649 296.697 185.733 296.608 185.784L292.944 187.92C292.89 187.965 292.823 187.993 292.752 188V187.976Z" fill="#003415"/>
<path d="M300.088 183.696C300.02 183.696 299.954 183.678 299.895 183.644C299.836 183.611 299.787 183.562 299.752 183.504C299.702 183.415 299.69 183.309 299.717 183.211C299.743 183.112 299.808 183.028 299.896 182.976L300.928 182.368L299.896 181.76C299.852 181.735 299.813 181.701 299.782 181.661C299.751 181.621 299.728 181.575 299.715 181.526C299.701 181.477 299.698 181.426 299.704 181.375C299.71 181.325 299.727 181.276 299.752 181.232C299.777 181.188 299.811 181.149 299.851 181.118C299.891 181.087 299.937 181.064 299.986 181.051C300.035 181.037 300.086 181.034 300.137 181.04C300.187 181.047 300.236 181.063 300.28 181.088L301.88 182.032C301.952 182.077 302.008 182.144 302.04 182.223C302.072 182.302 302.077 182.39 302.056 182.472C302.04 182.532 302.009 182.587 301.968 182.633C301.926 182.679 301.874 182.714 301.816 182.736L300.216 183.64C300.178 183.668 300.134 183.687 300.088 183.696Z" fill="#003415"/>
<path d="M296.904 179.952C296.837 179.953 296.771 179.937 296.712 179.904L293.512 178.048C293.424 177.996 293.36 177.912 293.333 177.813C293.306 177.715 293.318 177.609 293.368 177.52C293.392 177.476 293.425 177.437 293.464 177.406C293.504 177.375 293.549 177.352 293.598 177.338C293.646 177.325 293.697 177.321 293.747 177.328C293.797 177.334 293.845 177.351 293.888 177.376L297.088 179.232C297.175 179.285 297.237 179.37 297.263 179.469C297.288 179.567 297.274 179.672 297.224 179.76C297.192 179.817 297.146 179.865 297.09 179.899C297.033 179.932 296.969 179.951 296.904 179.952ZM290.504 176.24C290.438 176.241 290.374 176.222 290.32 176.184L287.12 174.328C287.033 174.275 286.971 174.19 286.945 174.092C286.92 173.993 286.934 173.889 286.984 173.8C287.034 173.713 287.117 173.648 287.214 173.621C287.312 173.594 287.416 173.607 287.504 173.656L290.704 175.512C290.793 175.565 290.857 175.651 290.884 175.751C290.911 175.851 290.898 175.957 290.848 176.048C290.815 176.104 290.768 176.151 290.712 176.185C290.656 176.218 290.593 176.237 290.528 176.24H290.504Z" fill="#003415"/>
<path d="M284.16 172.52C284.093 172.519 284.027 172.503 283.968 172.472L282.368 171.528C282.281 171.475 282.219 171.39 282.193 171.292C282.168 171.193 282.182 171.088 282.232 171C282.282 170.912 282.365 170.848 282.462 170.821C282.56 170.794 282.664 170.807 282.752 170.856L284.352 171.8C284.427 171.841 284.486 171.907 284.519 171.986C284.553 172.064 284.559 172.152 284.537 172.235C284.515 172.318 284.466 172.391 284.398 172.442C284.329 172.494 284.246 172.521 284.16 172.52Z" fill="#003415"/>
<path d="M278.504 227.136C278.437 227.136 278.372 227.118 278.314 227.084C278.256 227.051 278.209 227.002 278.176 226.944C278.126 226.855 278.114 226.749 278.141 226.651C278.167 226.552 278.232 226.468 278.32 226.416L279.92 225.472C280.008 225.423 280.112 225.41 280.21 225.437C280.307 225.464 280.39 225.528 280.44 225.616C280.49 225.705 280.502 225.811 280.475 225.909C280.448 226.008 280.384 226.092 280.296 226.144L278.696 227.088C278.637 227.12 278.571 227.137 278.504 227.136Z" fill="#003415"/>
<path d="M241.672 248.632C241.605 248.632 241.54 248.614 241.482 248.581C241.424 248.547 241.377 248.498 241.344 248.44C241.318 248.397 241.301 248.348 241.294 248.298C241.287 248.248 241.289 248.197 241.302 248.148C241.315 248.099 241.337 248.053 241.367 248.012C241.398 247.972 241.436 247.938 241.48 247.912L244.552 246.12C244.64 246.071 244.744 246.058 244.842 246.085C244.939 246.112 245.022 246.177 245.072 246.264C245.098 246.308 245.115 246.356 245.122 246.406C245.129 246.456 245.127 246.507 245.114 246.556C245.101 246.605 245.079 246.652 245.049 246.692C245.018 246.732 244.98 246.766 244.936 246.792L241.864 248.584C241.805 248.616 241.739 248.632 241.672 248.632ZM247.816 245.048C247.748 245.05 247.681 245.032 247.621 244.999C247.562 244.965 247.513 244.916 247.48 244.856C247.43 244.767 247.418 244.661 247.445 244.563C247.471 244.464 247.536 244.38 247.624 244.328L250.688 242.536C250.732 242.511 250.781 242.495 250.831 242.488C250.882 242.482 250.933 242.485 250.982 242.499C251.031 242.512 251.077 242.535 251.117 242.566C251.157 242.597 251.191 242.636 251.216 242.68C251.241 242.724 251.257 242.773 251.264 242.823C251.27 242.874 251.267 242.925 251.253 242.974C251.24 243.023 251.217 243.069 251.186 243.109C251.155 243.149 251.116 243.183 251.072 243.208L248 245C247.944 245.032 247.88 245.048 247.816 245.048ZM253.952 241.472C253.885 241.473 253.819 241.456 253.761 241.422C253.703 241.388 253.656 241.339 253.624 241.28C253.571 241.191 253.556 241.084 253.581 240.984C253.607 240.884 253.671 240.797 253.76 240.744L256.8 238.96C256.843 238.934 256.891 238.917 256.94 238.91C256.99 238.903 257.04 238.906 257.089 238.919C257.137 238.931 257.182 238.954 257.222 238.984C257.262 239.015 257.295 239.053 257.32 239.096C257.37 239.185 257.384 239.289 257.359 239.388C257.333 239.486 257.271 239.571 257.184 239.624L254.112 241.416C254.064 241.447 254.009 241.467 253.952 241.472ZM260.088 237.888C260.022 237.887 259.957 237.868 259.899 237.834C259.842 237.801 259.794 237.753 259.76 237.696C259.71 237.608 259.696 237.503 259.721 237.405C259.747 237.306 259.809 237.221 259.896 237.168L262.968 235.376C263.011 235.349 263.058 235.331 263.108 235.324C263.158 235.316 263.209 235.319 263.257 235.331C263.306 235.344 263.352 235.367 263.392 235.398C263.431 235.429 263.464 235.468 263.488 235.512C263.515 235.555 263.533 235.604 263.541 235.654C263.549 235.704 263.546 235.756 263.533 235.805C263.521 235.855 263.498 235.901 263.467 235.941C263.436 235.982 263.397 236.015 263.352 236.04L260.28 237.832C260.223 237.87 260.156 237.889 260.088 237.888ZM266.232 234.304C266.146 234.305 266.063 234.278 265.994 234.227C265.926 234.175 265.877 234.102 265.855 234.019C265.833 233.936 265.839 233.849 265.872 233.77C265.906 233.691 265.965 233.626 266.04 233.584L269.112 231.792C269.155 231.767 269.203 231.75 269.253 231.744C269.303 231.737 269.354 231.741 269.402 231.754C269.451 231.768 269.496 231.791 269.536 231.822C269.575 231.853 269.608 231.892 269.632 231.936C269.682 232.025 269.694 232.131 269.667 232.229C269.64 232.328 269.576 232.412 269.488 232.464L266.4 234.256C266.348 234.284 266.291 234.3 266.232 234.304ZM272.368 230.72C272.301 230.722 272.235 230.705 272.177 230.671C272.119 230.637 272.071 230.587 272.04 230.528C272.014 230.485 271.997 230.436 271.99 230.386C271.983 230.336 271.985 230.285 271.998 230.236C272.011 230.187 272.033 230.141 272.063 230.1C272.094 230.06 272.132 230.026 272.176 230L275.248 228.208C275.336 228.159 275.44 228.146 275.538 228.173C275.635 228.2 275.718 228.265 275.768 228.352C275.794 228.396 275.811 228.444 275.818 228.494C275.825 228.544 275.823 228.595 275.81 228.644C275.797 228.694 275.775 228.74 275.745 228.78C275.714 228.82 275.676 228.854 275.632 228.88L272.56 230.672C272.501 230.703 272.435 230.719 272.368 230.72Z" fill="#003415"/>
<path d="M236.984 251.368C236.918 251.367 236.853 251.348 236.795 251.314C236.738 251.281 236.69 251.233 236.656 251.176C236.606 251.088 236.592 250.983 236.617 250.885C236.643 250.786 236.705 250.701 236.792 250.648L238.392 249.704C238.435 249.679 238.484 249.662 238.533 249.656C238.583 249.649 238.634 249.653 238.682 249.666C238.731 249.68 238.776 249.703 238.816 249.734C238.855 249.765 238.888 249.804 238.912 249.848C238.962 249.937 238.974 250.043 238.947 250.141C238.921 250.24 238.856 250.324 238.768 250.376L237.168 251.32C237.112 251.351 237.048 251.368 236.984 251.368Z" fill="#003415"/>
<path d="M235.36 283.2C235.293 283.2 235.228 283.182 235.17 283.149C235.112 283.115 235.065 283.066 235.032 283.008C234.984 282.919 234.971 282.815 234.996 282.717C235.021 282.619 235.083 282.535 235.168 282.48L236.768 281.536C236.856 281.487 236.96 281.474 237.058 281.501C237.155 281.528 237.238 281.593 237.288 281.68C237.338 281.769 237.35 281.875 237.323 281.973C237.296 282.072 237.232 282.156 237.144 282.208L235.544 283.152C235.488 283.183 235.424 283.2 235.36 283.2Z" fill="#003415"/>
<path d="M198.528 304.664C198.461 304.666 198.395 304.649 198.337 304.615C198.279 304.581 198.231 304.531 198.2 304.472C198.174 304.429 198.157 304.38 198.15 304.33C198.143 304.28 198.145 304.229 198.158 304.18C198.171 304.131 198.193 304.085 198.223 304.044C198.254 304.004 198.292 303.97 198.336 303.944L201.408 302.152C201.496 302.103 201.6 302.09 201.698 302.117C201.795 302.144 201.878 302.208 201.928 302.296C201.954 302.34 201.971 302.388 201.978 302.438C201.985 302.488 201.983 302.539 201.97 302.588C201.957 302.637 201.935 302.684 201.905 302.724C201.874 302.764 201.836 302.798 201.792 302.824L198.72 304.616C198.661 304.647 198.595 304.663 198.528 304.664ZM204.664 301.08C204.597 301.08 204.532 301.062 204.474 301.029C204.416 300.995 204.369 300.946 204.336 300.888C204.288 300.799 204.275 300.695 204.3 300.597C204.325 300.499 204.387 300.415 204.472 300.36L207.544 298.568C207.588 298.543 207.637 298.527 207.687 298.52C207.738 298.514 207.789 298.517 207.838 298.531C207.887 298.544 207.933 298.567 207.973 298.598C208.013 298.629 208.047 298.668 208.072 298.712C208.097 298.756 208.113 298.805 208.12 298.855C208.126 298.906 208.123 298.957 208.109 299.006C208.096 299.055 208.073 299.101 208.042 299.141C208.011 299.181 207.972 299.215 207.928 299.24L204.856 301.032C204.797 301.065 204.731 301.081 204.664 301.08ZM210.808 297.504C210.739 297.504 210.672 297.485 210.613 297.45C210.554 297.415 210.505 297.364 210.472 297.304C210.422 297.215 210.41 297.109 210.437 297.011C210.464 296.912 210.528 296.828 210.616 296.776L213.688 294.992C213.731 294.966 213.779 294.949 213.828 294.942C213.878 294.935 213.928 294.938 213.977 294.951C214.025 294.963 214.07 294.986 214.11 295.016C214.15 295.047 214.183 295.085 214.208 295.128C214.258 295.217 214.27 295.323 214.243 295.421C214.216 295.52 214.152 295.604 214.064 295.656L211 297.448C210.943 297.485 210.876 297.504 210.808 297.504ZM216.944 293.92C216.858 293.921 216.775 293.894 216.706 293.842C216.638 293.791 216.589 293.718 216.567 293.635C216.545 293.552 216.551 293.465 216.585 293.386C216.618 293.307 216.677 293.242 216.752 293.2L219.824 291.408C219.867 291.381 219.914 291.363 219.964 291.356C220.014 291.348 220.065 291.35 220.114 291.363C220.162 291.376 220.208 291.399 220.248 291.43C220.287 291.461 220.32 291.5 220.344 291.544C220.371 291.587 220.389 291.636 220.397 291.686C220.405 291.736 220.402 291.788 220.389 291.837C220.377 291.887 220.354 291.933 220.323 291.973C220.292 292.014 220.253 292.047 220.208 292.072L217.136 293.864C217.079 293.902 217.012 293.921 216.944 293.92ZM223.088 290.336C223.002 290.337 222.919 290.31 222.85 290.258C222.782 290.207 222.733 290.134 222.711 290.051C222.689 289.968 222.695 289.88 222.729 289.802C222.762 289.723 222.821 289.658 222.896 289.616L225.96 287.824C226.004 287.798 226.053 287.782 226.103 287.775C226.154 287.769 226.205 287.772 226.254 287.786C226.303 287.799 226.349 287.822 226.389 287.853C226.43 287.885 226.463 287.924 226.488 287.968C226.538 288.057 226.55 288.163 226.523 288.261C226.496 288.36 226.432 288.444 226.344 288.496L223.272 290.288C223.216 290.32 223.152 290.336 223.088 290.336ZM229.224 286.752C229.157 286.754 229.091 286.737 229.033 286.703C228.975 286.669 228.927 286.619 228.896 286.56C228.87 286.517 228.853 286.468 228.846 286.418C228.839 286.368 228.841 286.317 228.854 286.268C228.867 286.219 228.889 286.173 228.919 286.132C228.95 286.092 228.988 286.058 229.032 286.032L232.104 284.24C232.192 284.191 232.296 284.178 232.394 284.205C232.491 284.232 232.574 284.297 232.624 284.384C232.672 284.473 232.685 284.577 232.66 284.675C232.635 284.773 232.573 284.858 232.488 284.912L229.416 286.704C229.357 286.735 229.291 286.751 229.224 286.752Z" fill="#003415"/>
<path d="M193.84 307.4C193.774 307.398 193.709 307.38 193.651 307.346C193.594 307.313 193.546 307.265 193.512 307.208C193.462 307.12 193.448 307.015 193.473 306.917C193.499 306.818 193.561 306.733 193.648 306.68L195.248 305.736C195.292 305.71 195.341 305.694 195.391 305.687C195.442 305.681 195.493 305.684 195.542 305.697C195.591 305.711 195.637 305.734 195.677 305.765C195.718 305.797 195.751 305.836 195.776 305.88C195.826 305.969 195.838 306.075 195.811 306.173C195.784 306.272 195.72 306.356 195.632 306.408L194.032 307.352C193.973 307.384 193.907 307.4 193.84 307.4Z" fill="#003415"/>
<path d="M219.088 72.4481C217.946 73.0355 216.68 73.3419 215.396 73.3419C214.112 73.3419 212.846 73.0355 211.704 72.4481C209.672 71.2641 209.672 69.3361 211.704 68.1441C212.846 67.5567 214.112 67.2502 215.396 67.2502C216.68 67.2502 217.946 67.5567 219.088 68.1441C221.128 69.3361 221.128 71.2641 219.088 72.4481Z" fill="#455A64"/>
<path d="M215.4 49.568V32.24L237.792 40.904L215.4 49.568Z" fill="#003415"/>
<path d="M215.4 71.072C215.188 71.072 214.984 70.9878 214.834 70.8377C214.684 70.6877 214.6 70.4842 214.6 70.272V28.84C214.565 28.7208 214.559 28.5951 214.581 28.4729C214.603 28.3507 214.653 28.2354 214.728 28.136C214.803 28.0367 214.899 27.956 215.01 27.9005C215.121 27.845 215.244 27.816 215.368 27.816C215.492 27.816 215.615 27.845 215.726 27.9005C215.837 27.956 215.933 28.0367 216.008 28.136C216.083 28.2354 216.133 28.3507 216.155 28.4729C216.177 28.5951 216.171 28.7208 216.136 28.84V70.296C216.131 70.4934 216.053 70.6819 215.917 70.8251C215.781 70.9684 215.597 71.0563 215.4 71.072Z" fill="#263238"/>
<path d="M228.983 106.64V105.598L231.089 102.119C231.268 101.815 231.418 101.547 231.539 101.316C231.662 101.084 231.756 100.873 231.819 100.682C231.883 100.49 231.915 100.303 231.915 100.123C231.915 99.9222 231.875 99.7726 231.796 99.6737C231.717 99.5727 231.609 99.5229 231.473 99.5244C231.336 99.5237 231.181 99.5737 231.008 99.6745C230.827 99.7797 230.669 99.9138 230.534 100.077C230.399 100.24 230.295 100.422 230.222 100.622C230.149 100.823 230.113 101.032 230.113 101.251L228.926 101.941C228.926 101.493 229.013 101.053 229.188 100.622C229.364 100.191 229.609 99.7928 229.925 99.4289C230.241 99.0649 230.604 98.7632 231.016 98.5237C231.44 98.2774 231.809 98.1499 232.122 98.1412C232.438 98.1291 232.684 98.2246 232.859 98.4279C233.034 98.6311 233.122 98.9298 233.122 99.324C233.122 99.5823 233.077 99.863 232.989 100.166C232.902 100.468 232.747 100.838 232.524 101.275C232.301 101.71 231.986 102.259 231.58 102.923L230.716 104.404V104.45L233.2 103.007V104.189L228.983 106.64ZM236.425 102.464C235.928 102.751 235.5 102.858 235.142 102.786C234.786 102.712 234.512 102.465 234.319 102.045C234.129 101.623 234.034 101.038 234.036 100.289C234.036 99.5427 234.132 98.8515 234.322 98.2151C234.515 97.5776 234.789 97.0184 235.145 96.5374C235.503 96.053 235.93 95.667 236.425 95.3794C236.919 95.0917 237.345 94.9824 237.701 95.0515C238.059 95.1194 238.334 95.3602 238.527 95.7739C238.719 96.1853 238.815 96.7645 238.813 97.5117C238.813 98.2622 238.717 98.9595 238.524 99.6037C238.333 100.247 238.06 100.812 237.704 101.3C237.348 101.787 236.921 102.176 236.425 102.464ZM236.425 101.265C236.763 101.068 237.034 100.714 237.236 100.202C237.438 99.6905 237.538 99.041 237.536 98.2538C237.536 97.7349 237.49 97.3297 237.398 97.0383C237.307 96.7457 237.178 96.5613 237.011 96.485C236.845 96.4075 236.65 96.4343 236.425 96.5652C236.088 96.7611 235.818 97.1127 235.616 97.6199C235.414 98.1272 235.312 98.7699 235.31 99.5483C235.31 100.074 235.355 100.486 235.446 100.785C235.538 101.081 235.668 101.269 235.835 101.347C236.003 101.423 236.199 101.396 236.425 101.265ZM241.974 99.1811C241.67 99.3557 241.376 99.4674 241.093 99.5161C240.812 99.5637 240.56 99.5222 240.337 99.3915C240.114 99.2608 239.936 99.0186 239.805 98.6649C239.676 98.3101 239.612 97.8198 239.612 97.194C239.614 96.6183 239.671 96.072 239.782 95.555C239.896 95.0347 240.058 94.5554 240.268 94.1172C240.479 93.6778 240.732 93.2901 241.027 92.9541C241.322 92.6158 241.652 92.3403 242.018 92.1276C242.412 91.8982 242.761 91.7847 243.063 91.7871C243.365 91.7873 243.608 91.8857 243.791 92.0822C243.975 92.2776 244.087 92.5523 244.126 92.9063L242.893 93.6232C242.844 93.4129 242.743 93.2846 242.589 93.2383C242.435 93.192 242.245 93.2349 242.018 93.3669C241.632 93.5908 241.34 93.9547 241.14 94.4586C240.941 94.9614 240.84 95.5468 240.836 96.2149L240.877 96.1914C240.965 95.9372 241.085 95.6953 241.235 95.4654C241.387 95.2323 241.559 95.0218 241.752 94.8342C241.946 94.6432 242.151 94.485 242.367 94.3597C242.717 94.1559 243.029 94.0704 243.303 94.1029C243.576 94.1333 243.792 94.2685 243.949 94.5085C244.107 94.7486 244.186 95.0824 244.186 95.5099C244.186 95.9731 244.093 96.4394 243.906 96.9087C243.721 97.377 243.462 97.8103 243.129 98.2089C242.798 98.604 242.413 98.9281 241.974 99.1811ZM241.968 98.0487C242.161 97.9368 242.333 97.7831 242.485 97.5878C242.637 97.3925 242.757 97.1783 242.843 96.9454C242.93 96.7124 242.973 96.4823 242.973 96.2552C242.973 96.028 242.93 95.8494 242.843 95.7194C242.759 95.5883 242.641 95.5129 242.491 95.4934C242.341 95.4738 242.17 95.5199 241.977 95.6319C241.833 95.7158 241.699 95.8248 241.576 95.9588C241.454 96.0916 241.348 96.2406 241.255 96.4057C241.165 96.5696 241.093 96.7402 241.041 96.9174C240.989 97.0924 240.963 97.2623 240.963 97.4271C240.963 97.6475 241.007 97.8239 241.093 97.9561C241.182 98.0873 241.301 98.1637 241.452 98.1855C241.604 98.2062 241.776 98.1606 241.968 98.0487ZM231.302 116.442C230.806 116.729 230.378 116.836 230.02 116.764C229.664 116.69 229.39 116.443 229.197 116.023C229.006 115.602 228.912 115.016 228.914 114.267C228.914 113.521 229.009 112.83 229.2 112.193C229.392 111.556 229.667 110.996 230.023 110.515C230.381 110.031 230.808 109.645 231.302 109.357C231.797 109.07 232.223 108.96 232.579 109.03C232.937 109.097 233.212 109.338 233.405 109.752C233.597 110.163 233.692 110.743 233.691 111.49C233.691 112.24 233.594 112.938 233.402 113.582C233.211 114.225 232.938 114.79 232.582 115.278C232.225 115.765 231.799 116.154 231.302 116.442ZM231.302 115.243C231.641 115.046 231.912 114.692 232.114 114.18C232.316 113.669 232.416 113.019 232.414 112.232C232.414 111.713 232.368 111.308 232.275 111.016C232.185 110.724 232.056 110.539 231.889 110.463C231.723 110.386 231.528 110.412 231.302 110.543C230.965 110.739 230.696 111.091 230.494 111.598C230.292 112.105 230.19 112.748 230.188 113.526C230.188 114.052 230.233 114.464 230.323 114.764C230.416 115.059 230.546 115.247 230.713 115.325C230.881 115.402 231.077 115.374 231.302 115.243Z" fill="#F4F4F4"/>
<path d="M272.271 162.592V161.55L274.377 158.071C274.556 157.767 274.706 157.499 274.827 157.268C274.95 157.036 275.044 156.825 275.107 156.635C275.171 156.442 275.203 156.255 275.203 156.075C275.203 155.874 275.163 155.725 275.084 155.626C275.005 155.525 274.897 155.475 274.761 155.476C274.624 155.476 274.469 155.526 274.296 155.626C274.115 155.732 273.957 155.866 273.822 156.029C273.687 156.192 273.583 156.374 273.51 156.574C273.437 156.775 273.401 156.984 273.401 157.203L272.214 157.893C272.214 157.445 272.301 157.005 272.476 156.574C272.652 156.143 272.897 155.745 273.213 155.381C273.529 155.017 273.892 154.715 274.304 154.476C274.728 154.229 275.097 154.102 275.41 154.093C275.726 154.081 275.972 154.177 276.147 154.38C276.322 154.583 276.41 154.882 276.41 155.276C276.41 155.534 276.365 155.815 276.277 156.118C276.19 156.42 276.035 156.79 275.812 157.227C275.589 157.662 275.274 158.211 274.868 158.875L274.004 160.356V160.402L276.488 158.959V160.141L272.271 162.592ZM279.713 158.416C279.216 158.703 278.788 158.81 278.43 158.738C278.074 158.664 277.8 158.417 277.607 157.997C277.417 157.575 277.322 156.99 277.324 156.241C277.324 155.495 277.42 154.803 277.61 154.167C277.803 153.53 278.077 152.97 278.433 152.489C278.791 152.005 279.218 151.619 279.713 151.331C280.207 151.044 280.633 150.934 280.989 151.004C281.347 151.071 281.622 151.312 281.815 151.726C282.007 152.137 282.103 152.717 282.101 153.464C282.101 154.214 282.005 154.912 281.812 155.556C281.621 156.199 281.348 156.764 280.992 157.252C280.636 157.739 280.209 158.128 279.713 158.416ZM279.713 157.217C280.051 157.02 280.322 156.666 280.524 156.154C280.726 155.642 280.826 154.993 280.824 154.206C280.824 153.687 280.778 153.282 280.686 152.99C280.595 152.698 280.466 152.513 280.299 152.437C280.133 152.36 279.938 152.386 279.713 152.517C279.376 152.713 279.106 153.065 278.904 153.572C278.702 154.079 278.6 154.722 278.598 155.5C278.598 156.026 278.643 156.438 278.734 156.738C278.826 157.033 278.956 157.221 279.123 157.299C279.291 157.376 279.487 157.348 279.713 157.217ZM285.152 155.197C284.744 155.434 284.38 155.559 284.061 155.571C283.743 155.582 283.491 155.489 283.304 155.293C283.118 155.096 283.02 154.803 283.013 154.413L284.225 153.708C284.239 153.965 284.335 154.124 284.514 154.185C284.693 154.246 284.906 154.204 285.152 154.061C285.349 153.947 285.522 153.796 285.672 153.609C285.824 153.418 285.943 153.208 286.027 152.978C286.114 152.745 286.157 152.51 286.157 152.274C286.157 152.034 286.113 151.848 286.025 151.717C285.938 151.585 285.818 151.512 285.664 151.499C285.51 151.486 285.333 151.536 285.135 151.649C284.962 151.75 284.793 151.889 284.63 152.067C284.468 152.243 284.342 152.429 284.251 152.624L283.14 153.04L283.42 149.27L287.035 147.168V148.35L284.451 149.853L284.298 151.655L284.332 151.635C284.436 151.405 284.593 151.174 284.803 150.941C285.013 150.707 285.248 150.515 285.508 150.364C285.864 150.157 286.182 150.069 286.461 150.1C286.74 150.132 286.96 150.27 287.122 150.514C287.284 150.757 287.364 151.098 287.362 151.537C287.364 151.997 287.271 152.461 287.084 152.928C286.9 153.392 286.641 153.823 286.308 154.221C285.976 154.617 285.591 154.942 285.152 155.197ZM274.59 172.394C274.094 172.681 273.666 172.788 273.308 172.716C272.952 172.642 272.678 172.395 272.485 171.975C272.294 171.554 272.2 170.968 272.202 170.219C272.202 169.473 272.297 168.782 272.488 168.145C272.68 167.508 272.955 166.948 273.311 166.467C273.669 165.983 274.096 165.597 274.59 165.309C275.085 165.022 275.511 164.913 275.867 164.982C276.225 165.05 276.5 165.29 276.693 165.704C276.885 166.115 276.98 166.695 276.979 167.442C276.979 168.192 276.882 168.89 276.69 169.534C276.499 170.177 276.226 170.742 275.87 171.23C275.513 171.717 275.087 172.106 274.59 172.394ZM274.59 171.195C274.929 170.998 275.2 170.644 275.402 170.132C275.604 169.621 275.704 168.971 275.702 168.184C275.702 167.665 275.656 167.26 275.563 166.968C275.473 166.676 275.344 166.491 275.177 166.415C275.011 166.338 274.816 166.364 274.59 166.495C274.253 166.691 273.984 167.043 273.782 167.55C273.58 168.057 273.478 168.7 273.476 169.478C273.476 170.004 273.521 170.416 273.611 170.716C273.704 171.011 273.834 171.199 274.001 171.277C274.169 171.354 274.365 171.326 274.59 171.195Z" fill="#F4F4F4"/>
<path d="M271.943 209.254V208.212L274.049 207.181C274.228 207.084 274.378 206.991 274.499 206.902C274.622 206.813 274.716 206.71 274.779 206.593C274.843 206.474 274.874 206.325 274.874 206.144C274.874 205.944 274.835 205.748 274.756 205.558C274.677 205.365 274.569 205.19 274.433 205.032C274.296 204.873 274.141 204.743 273.968 204.642C273.787 204.537 273.629 204.487 273.494 204.493C273.359 204.5 273.255 204.561 273.182 204.676C273.109 204.792 273.072 204.959 273.072 205.177L271.886 204.487C271.886 204.039 271.973 203.702 272.148 203.474C272.324 203.246 272.569 203.134 272.885 203.137C273.201 203.14 273.564 203.262 273.976 203.501C274.4 203.747 274.769 204.049 275.082 204.405C275.398 204.76 275.644 205.141 275.819 205.548C275.994 205.955 276.082 206.355 276.082 206.749C276.082 207.008 276.037 207.237 275.949 207.437C275.862 207.638 275.707 207.828 275.484 208.005C275.26 208.18 274.946 208.364 274.539 208.555L273.676 209.032V209.079L276.16 210.523V211.705L271.943 209.254ZM279.384 213.73C278.888 213.439 278.46 213.049 278.102 212.561C277.746 212.073 277.472 211.507 277.279 210.863C277.089 210.22 276.994 209.525 276.996 208.778C276.996 208.032 277.092 207.451 277.282 207.037C277.475 206.623 277.749 206.383 278.105 206.316C278.463 206.248 278.89 206.358 279.384 206.645C279.879 206.933 280.305 207.318 280.661 207.802C281.019 208.286 281.294 208.847 281.487 209.484C281.679 210.12 281.775 210.81 281.773 211.555C281.773 212.305 281.676 212.891 281.484 213.311C281.293 213.732 281.02 213.98 280.664 214.053C280.308 214.127 279.881 214.019 279.384 213.73ZM279.384 212.531C279.723 212.728 279.994 212.688 280.196 212.412C280.398 212.135 280.498 211.602 280.496 210.813C280.496 210.294 280.45 209.835 280.358 209.436C280.267 209.038 280.138 208.704 279.971 208.433C279.805 208.163 279.61 207.962 279.384 207.831C279.048 207.635 278.778 207.673 278.576 207.946C278.374 208.218 278.272 208.742 278.27 209.518C278.27 210.044 278.315 210.509 278.406 210.913C278.498 211.316 278.628 211.655 278.795 211.928C278.963 212.199 279.159 212.4 279.384 212.531ZM282.575 214.232V213.093L285.044 210.029L285.893 210.523V212.1L285.39 211.807L283.834 213.752V213.805L287.343 215.845V217.004L282.575 214.232ZM285.414 217.085V215.535L285.437 215.044V210.258L286.609 210.939V217.78L285.414 217.085ZM274.262 221.752C273.766 221.461 273.338 221.071 272.98 220.583C272.624 220.095 272.35 219.529 272.157 218.885C271.966 218.242 271.872 217.547 271.874 216.8C271.874 216.054 271.969 215.473 272.16 215.058C272.352 214.645 272.627 214.405 272.983 214.338C273.341 214.27 273.767 214.38 274.262 214.667C274.757 214.955 275.183 215.34 275.539 215.824C275.897 216.308 276.172 216.869 276.365 217.506C276.557 218.142 276.652 218.832 276.65 219.577C276.65 220.327 276.554 220.912 276.362 221.333C276.171 221.754 275.898 222.002 275.542 222.075C275.185 222.149 274.759 222.041 274.262 221.752ZM274.262 220.553C274.601 220.75 274.872 220.71 275.074 220.434C275.276 220.157 275.376 219.624 275.374 218.835C275.374 218.316 275.328 217.857 275.235 217.458C275.145 217.06 275.016 216.726 274.848 216.455C274.683 216.185 274.488 215.984 274.262 215.853C273.925 215.657 273.656 215.695 273.454 215.968C273.252 216.24 273.15 216.764 273.148 217.54C273.148 218.066 273.193 218.531 273.283 218.935C273.376 219.338 273.506 219.677 273.673 219.95C273.841 220.221 274.037 220.422 274.262 220.553Z" fill="#F4F4F4"/>
<path d="M235.405 269.284C234.908 268.993 234.48 268.603 234.122 268.115C233.766 267.627 233.492 267.061 233.299 266.417C233.109 265.774 233.014 265.079 233.016 264.332C233.016 263.586 233.112 263.005 233.302 262.59C233.495 262.177 233.769 261.937 234.125 261.87C234.483 261.802 234.91 261.912 235.405 262.199C235.899 262.487 236.325 262.872 236.681 263.356C237.039 263.84 237.314 264.401 237.507 265.038C237.699 265.674 237.795 266.364 237.793 267.109C237.793 267.859 237.696 268.444 237.504 268.865C237.313 269.286 237.04 269.534 236.684 269.607C236.328 269.681 235.901 269.573 235.405 269.284ZM235.405 268.085C235.743 268.282 236.014 268.242 236.216 267.966C236.418 267.689 236.518 267.156 236.516 266.366C236.516 265.848 236.47 265.389 236.378 264.99C236.287 264.592 236.158 264.258 235.991 263.987C235.825 263.717 235.63 263.516 235.405 263.385C235.068 263.189 234.798 263.227 234.596 263.5C234.394 263.772 234.292 264.296 234.29 265.072C234.29 265.598 234.335 266.063 234.426 266.467C234.518 266.87 234.648 267.209 234.815 267.482C234.983 267.753 235.179 267.954 235.405 268.085ZM240.87 272.405C240.439 272.155 240.055 271.846 239.718 271.478C239.383 271.11 239.118 270.718 238.924 270.302C238.732 269.885 238.632 269.475 238.627 269.073L239.886 269.805C239.893 269.977 239.941 270.151 240.027 270.328C240.116 270.505 240.233 270.67 240.379 270.824C240.526 270.978 240.69 271.108 240.873 271.215C241.064 271.325 241.232 271.384 241.379 271.391C241.525 271.399 241.64 271.357 241.722 271.267C241.805 271.177 241.846 271.042 241.846 270.862C241.846 270.679 241.802 270.492 241.714 270.3C241.627 270.107 241.502 269.923 241.338 269.748C241.177 269.574 240.984 269.422 240.761 269.292L240.209 268.971V267.909L240.761 268.23C240.949 268.339 241.116 268.398 241.26 268.406C241.407 268.416 241.52 268.377 241.601 268.291C241.682 268.202 241.722 268.067 241.722 267.887C241.722 267.715 241.687 267.544 241.615 267.374C241.546 267.202 241.448 267.042 241.321 266.895C241.196 266.749 241.049 266.627 240.882 266.53C240.713 266.431 240.558 266.377 240.417 266.366C240.276 266.354 240.164 266.387 240.079 266.467C239.994 266.547 239.949 266.672 239.943 266.842L238.745 266.146C238.751 265.755 238.848 265.464 239.037 265.273C239.225 265.082 239.479 264.995 239.799 265.011C240.121 265.027 240.483 265.152 240.888 265.387C241.296 265.625 241.653 265.918 241.959 266.267C242.265 266.617 242.503 266.987 242.672 267.377C242.844 267.766 242.928 268.14 242.927 268.5C242.928 268.884 242.825 269.144 242.618 269.279C242.412 269.415 242.143 269.422 241.812 269.298V269.352C242.247 269.669 242.578 270.037 242.805 270.454C243.034 270.87 243.148 271.29 243.146 271.714C243.148 272.105 243.051 272.395 242.854 272.583C242.66 272.773 242.391 272.855 242.049 272.83C241.706 272.804 241.313 272.663 240.87 272.405ZM235.405 280.284C234.908 279.993 234.48 279.603 234.122 279.115C233.766 278.627 233.492 278.061 233.299 277.417C233.109 276.774 233.014 276.079 233.016 275.332C233.016 274.586 233.112 274.005 233.302 273.59C233.495 273.177 233.769 272.937 234.125 272.87C234.483 272.802 234.91 272.912 235.405 273.199C235.899 273.487 236.325 273.872 236.681 274.356C237.039 274.84 237.314 275.401 237.507 276.038C237.699 276.674 237.795 277.364 237.793 278.109C237.793 278.859 237.696 279.444 237.504 279.865C237.313 280.286 237.04 280.534 236.684 280.607C236.328 280.681 235.901 280.573 235.405 280.284ZM235.405 279.085C235.743 279.282 236.014 279.242 236.216 278.966C236.418 278.689 236.518 278.156 236.516 277.366C236.516 276.848 236.47 276.389 236.378 275.99C236.287 275.592 236.158 275.258 235.991 274.987C235.825 274.717 235.63 274.516 235.405 274.385C235.068 274.189 234.798 274.227 234.596 274.5C234.394 274.772 234.292 275.296 234.29 276.072C234.29 276.598 234.335 277.063 234.426 277.467C234.518 277.87 234.648 278.209 234.815 278.482C234.983 278.753 235.179 278.954 235.405 279.085Z" fill="#F4F4F4"/>
<path d="M192.277 327.42C191.78 327.129 191.352 326.739 190.994 326.251C190.638 325.763 190.364 325.197 190.171 324.553C189.981 323.91 189.886 323.215 189.888 322.468C189.888 321.722 189.984 321.141 190.174 320.726C190.367 320.313 190.641 320.073 190.997 320.006C191.355 319.938 191.782 320.048 192.277 320.335C192.771 320.623 193.197 321.008 193.553 321.492C193.911 321.976 194.186 322.537 194.379 323.174C194.571 323.81 194.667 324.5 194.665 325.245C194.665 325.995 194.568 326.58 194.376 327.001C194.185 327.422 193.912 327.67 193.556 327.743C193.2 327.817 192.773 327.709 192.277 327.42ZM192.277 326.221C192.615 326.418 192.886 326.378 193.088 326.102C193.29 325.825 193.39 325.292 193.388 324.502C193.388 323.984 193.342 323.525 193.25 323.126C193.159 322.728 193.03 322.394 192.863 322.123C192.697 321.853 192.502 321.652 192.277 321.521C191.94 321.325 191.67 321.363 191.468 321.636C191.266 321.908 191.164 322.432 191.162 323.208C191.162 323.734 191.207 324.199 191.298 324.603C191.39 325.006 191.52 325.345 191.687 325.618C191.855 325.889 192.051 326.09 192.277 326.221ZM195.556 329.177V328.135L197.662 327.104C197.841 327.007 197.991 326.914 198.112 326.825C198.235 326.736 198.329 326.633 198.392 326.516C198.456 326.398 198.487 326.248 198.487 326.067C198.487 325.867 198.448 325.672 198.369 325.481C198.29 325.288 198.182 325.113 198.046 324.955C197.909 324.796 197.754 324.666 197.581 324.565C197.4 324.46 197.242 324.41 197.107 324.416C196.972 324.423 196.868 324.484 196.795 324.599C196.722 324.715 196.685 324.882 196.685 325.1L195.499 324.41C195.499 323.962 195.586 323.625 195.761 323.397C195.937 323.169 196.182 323.057 196.498 323.06C196.813 323.063 197.177 323.185 197.589 323.424C198.013 323.67 198.382 323.972 198.695 324.328C199.011 324.683 199.257 325.064 199.432 325.471C199.607 325.878 199.695 326.278 199.695 326.672C199.695 326.931 199.65 327.16 199.562 327.36C199.475 327.561 199.32 327.751 199.097 327.928C198.873 328.103 198.559 328.287 198.152 328.478L197.289 328.955V329.002L199.773 330.446V331.628L195.556 329.177ZM192.277 338.42C191.78 338.129 191.352 337.739 190.994 337.251C190.638 336.763 190.364 336.197 190.171 335.553C189.981 334.91 189.886 334.215 189.888 333.468C189.888 332.722 189.984 332.141 190.174 331.726C190.367 331.313 190.641 331.073 190.997 331.006C191.355 330.938 191.782 331.048 192.277 331.335C192.771 331.623 193.197 332.008 193.553 332.492C193.911 332.976 194.186 333.537 194.379 334.174C194.571 334.81 194.667 335.5 194.665 336.245C194.665 336.995 194.568 337.58 194.376 338.001C194.185 338.422 193.912 338.67 193.556 338.743C193.2 338.817 192.773 338.709 192.277 338.42ZM192.277 337.221C192.615 337.418 192.886 337.378 193.088 337.102C193.29 336.825 193.39 336.292 193.388 335.502C193.388 334.984 193.342 334.525 193.25 334.126C193.159 333.728 193.03 333.394 192.863 333.123C192.697 332.853 192.502 332.652 192.277 332.521C191.94 332.325 191.67 332.363 191.468 332.636C191.266 332.908 191.164 333.432 191.162 334.208C191.162 334.734 191.207 335.199 191.298 335.603C191.39 336.006 191.52 336.345 191.687 336.618C191.855 336.889 192.051 337.09 192.277 337.221Z" fill="#F4F4F4"/>
<path d="M177.288 203.936H167.928V219.024H177.288V203.936Z" fill="#FFA8A7"/>
<path d="M182.88 200.48L185.104 203.68C185.201 203.817 185.245 203.985 185.229 204.152C185.213 204.32 185.137 204.475 185.016 204.592C184.459 205.2 183.7 205.583 182.88 205.672V200.48Z" fill="#F28F8F"/>
<path d="M173.504 188.648C173.504 188.648 180.792 183.48 183.104 201.448C185.008 216.384 175.736 212.96 172.288 210.896C168.84 208.832 162.248 202.608 166.584 193.856C168.544 189.88 173.504 188.648 173.504 188.648Z" fill="#FFA8A7"/>
<path d="M180.224 194.4C180.224 194.4 180.28 197.672 177.288 197.832C178.028 198.691 178.404 199.804 178.336 200.936C178.336 203.064 177.608 202.656 177.288 202.248C176.968 201.84 173.648 202.248 173.648 202.248L175.344 205.448C175.552 206.66 175.445 207.906 175.035 209.065C174.625 210.225 173.924 211.26 173 212.072C173 212.072 168.552 213.296 166.528 212.072C166.528 212.072 160.928 205.856 159.896 201.448C158.864 197.04 158.848 193.192 161.432 191.392C161.432 191.392 162.232 185.832 168.144 185.832C174.056 185.832 175.792 187.352 178.984 186.632C180.28 186.344 182.224 185.408 182.224 186.712C182.224 188.016 180.624 189.112 180.624 189.112C180.624 189.112 182.224 189.024 183.088 188.944C183.952 188.864 185.88 188.576 185.552 191.072C185.224 193.568 182.992 194.832 180.224 194.4Z" fill="#263238"/>
<path d="M162.216 191.592C162.216 191.592 160.664 188.456 158.728 190.264C158.713 190.277 158.7 190.294 158.692 190.313C158.684 190.331 158.679 190.352 158.679 190.372C158.679 190.392 158.684 190.413 158.692 190.431C158.7 190.45 158.713 190.466 158.728 190.48L162.192 192.568L162.216 191.592Z" fill="#263238"/>
<path d="M177.288 202.272V207.128C177.288 207.128 172.264 207.032 172.264 203.312C172.264 199.888 176.304 200.656 177.288 202.272Z" fill="#FFA8A7"/>
<path d="M140.576 328.296C140.576 328.296 140.344 334.752 149.304 337.4C149.304 337.4 150.64 328.296 140.576 328.296Z" fill="#253239"/>
<path d="M147.56 342.824V338.936C147.559 338.115 147.746 337.305 148.107 336.567C148.467 335.829 148.992 335.184 149.64 334.68C149.64 334.68 148.312 329.008 142.936 329.344C141.198 330.014 139.702 331.19 138.64 332.72C138.249 333.243 137.975 333.843 137.837 334.481C137.699 335.119 137.7 335.779 137.84 336.416C137.805 336.272 137.81 336.121 137.855 335.98C137.901 335.838 137.985 335.713 138.098 335.616C138.211 335.52 138.348 335.457 138.495 335.434C138.641 335.412 138.791 335.43 138.928 335.488L140.224 336.024C141.032 336.356 141.747 336.881 142.305 337.553C142.863 338.225 143.247 339.024 143.424 339.88L145.024 347.44C145.157 348.143 145.504 348.788 146.016 349.287C146.528 349.787 147.182 350.117 147.888 350.232H148C148.147 350.24 148.293 350.24 148.44 350.232H148.56C148.705 350.227 148.849 350.213 148.992 350.192H149.112C149.26 350.168 149.407 350.136 149.552 350.096H149.648C149.827 350.045 150.001 349.978 150.168 349.896C150.349 349.814 150.523 349.718 150.688 349.608L152.048 348.72C152.246 348.592 152.406 348.415 152.514 348.206C152.622 347.997 152.674 347.763 152.664 347.528C152.56 345.992 151.88 342.824 147.56 342.824Z" fill="#37474F"/>
<path d="M152 348.704L150.64 349.592C150.475 349.702 150.301 349.798 150.12 349.88C149.953 349.962 149.779 350.029 149.6 350.08H149.504C149.359 350.12 149.212 350.152 149.064 350.176H148.944H148.776H148.512H148.232H147.952H147.864C147.171 350.062 146.528 349.742 146.019 349.256C145.511 348.771 145.161 348.144 145.016 347.456C145.02 347.432 145.02 347.408 145.016 347.384L143.416 339.824C143.239 338.968 142.855 338.169 142.297 337.497C141.739 336.825 141.024 336.3 140.216 335.968L138.92 335.432C138.352 335.176 137.984 335.616 137.752 335.84C137.538 336.029 137.383 336.277 137.306 336.552C137.23 336.828 137.234 337.119 137.32 337.392L138.92 344.424C139.277 346.03 140.229 347.442 141.584 348.376L145 350.72C145.556 351.074 146.184 351.301 146.838 351.385C147.492 351.47 148.156 351.409 148.784 351.208H148.8H148.88C149.121 351.123 149.357 351.022 149.584 350.904L151.048 350.104C151.363 349.933 151.636 349.693 151.847 349.402C152.057 349.111 152.2 348.777 152.264 348.424C152.194 348.533 152.104 348.627 152 348.704Z" fill="#263238"/>
<path d="M141.824 329.856C141.824 329.856 147.968 330.448 147.944 336.944L151.76 330.984L145.496 324.44L141.824 329.856Z" fill="#FFA8A7"/>
<path d="M155.488 254.656V265.008C155.488 269.131 155.675 273.243 156.048 277.344L157.304 291.2C157.465 292.89 157.253 294.595 156.684 296.194C156.114 297.793 155.201 299.248 154.008 300.456C152.102 302.409 150.515 304.65 149.304 307.096C145.504 314.576 140.576 328.288 140.576 328.288C140.576 328.288 149.304 328.288 149.304 337.392L169.184 304.208C170.592 301.856 171.476 299.228 171.776 296.504L176 258.576L155.488 254.656Z" fill="#455A64"/>
<path d="M199.248 314.344C199.616 315.007 200.193 315.53 200.888 315.832H200.968C202.414 316.472 204.051 316.527 205.536 315.984L218.192 311.384C219.088 310.992 219.104 309.656 219.048 309.104H199.248V314.344Z" fill="#263238"/>
<path d="M200 306.848C200 306.848 198.216 308.704 198.872 312.216C198.979 312.77 199.219 313.289 199.572 313.73C199.925 314.17 200.379 314.518 200.896 314.744L200.976 314.784C202.423 315.422 204.06 315.473 205.544 314.928L218.2 310.328C218.509 310.209 218.762 309.979 218.91 309.683C219.058 309.387 219.09 309.047 219 308.728C218.416 306.672 216.352 304.6 211.568 305.856C210.36 306.253 209.113 306.521 207.848 306.656L207.2 305.6L200 306.848Z" fill="#37474F"/>
<path d="M207.848 306.616C207.184 308.392 204.648 309.016 201.72 308.032C201.052 307.804 200.429 307.46 199.88 307.016V300H207.88L207.848 306.616Z" fill="#FFA8A7"/>
<path d="M164.544 257.304V258.488C164.534 262.062 165.705 265.54 167.875 268.379C170.045 271.219 173.093 273.263 176.544 274.192L196.928 279.584C197.218 279.66 197.474 279.83 197.656 280.068C197.839 280.305 197.937 280.597 197.936 280.896V305.232C197.936 305.232 207.776 310.176 210.624 302.512V276.224C210.632 274.08 209.993 271.984 208.791 270.209C207.59 268.434 205.881 267.062 203.888 266.272L182.728 257.968L164.544 257.304Z" fill="#455A64"/>
<path d="M173.456 281.288L174.256 273.24C174.256 273.24 167.696 271.04 166.688 268.024C166.352 271.152 170.744 274.016 171.848 274.656C172.256 277.08 173.456 281.288 173.456 281.288Z" fill="#37474F"/>
<path d="M166.192 218.696C166.192 218.696 166.376 214.832 167.704 214.832C168.768 214.832 174.16 216.36 176.24 216.968C176.808 217.122 177.296 217.485 177.608 217.984C178.44 219.191 178.929 220.601 179.024 222.064L166.192 218.696Z" fill="#37474F"/>
<path d="M190.016 231.952C190.016 231.952 196.04 225.824 196.888 226.352C197.928 227.008 196.672 229.368 195.72 230.352L200.448 227.264C200.595 227.167 200.761 227.102 200.934 227.073C201.108 227.044 201.285 227.051 201.456 227.094C201.627 227.136 201.787 227.214 201.926 227.322C202.065 227.43 202.18 227.565 202.264 227.72C203.584 230.12 205.008 235.72 192.376 239.432L190.016 231.952Z" fill="#FFA8A7"/>
<path d="M194.16 240.16C194.16 240.16 191.024 241.6 186.96 243.36C180.144 246.336 170.712 250.264 168.984 249.984C164.452 249.255 159.977 248.207 155.592 246.848L156.464 234.72L169.52 238.56L189.088 230.888L189.888 230.568C195.408 232.6 194.16 240.16 194.16 240.16Z" fill="#263238"/>
<path d="M164.56 216.688L159.688 215.352C158.898 215.138 158.069 215.111 157.266 215.271C156.463 215.431 155.708 215.775 155.061 216.275C154.413 216.776 153.89 217.419 153.532 218.156C153.175 218.892 152.993 219.701 153 220.52V222.256C152.996 224.508 153.517 226.73 154.522 228.745C155.528 230.761 156.99 232.513 158.792 233.864L164.464 238.104L164.56 216.688Z" fill="#37474F"/>
<path d="M185.424 250.12L189.24 267.288C189.24 267.288 178.672 272.592 167.224 269.248C155.776 265.904 154.424 263.032 154.424 263.032L155.592 246.864L156.464 234.736L157.488 220.6C157.533 219.912 157.728 219.242 158.059 218.637C158.39 218.032 158.85 217.506 159.405 217.098C159.961 216.689 160.599 216.407 161.276 216.271C161.952 216.136 162.65 216.15 163.32 216.312L179.368 220.312C182.207 221.04 184.721 222.694 186.514 225.013C188.306 227.331 189.274 230.182 189.264 233.112L186.96 243.392L185.424 250.12Z" fill="#263238"/>
<path d="M193.064 270.48C193.064 270.48 199.36 276.192 198.96 277.112C198.56 278.032 195.96 277.048 194.96 276.152L198.264 280.752C198.368 280.896 198.441 281.059 198.479 281.232C198.517 281.405 198.52 281.584 198.486 281.758C198.452 281.932 198.383 282.097 198.283 282.243C198.183 282.389 198.054 282.514 197.904 282.608C195.616 284.072 190.136 285.808 185.808 273.256L193.064 270.48Z" fill="#FFA8A7"/>
<path d="M181.808 221.192C181.808 221.192 175.976 232.392 174.112 250.192C173.816 253 185.176 275.096 185.176 275.096C185.176 275.096 192.712 275.952 194.416 270.296L185.424 250.144L189.192 233.872C189.53 232.448 189.502 230.962 189.112 229.552C188.336 226.76 186.4 222.52 181.808 221.192Z" fill="#37474F"/>
<path d="M300.536 80.1359L308.608 84.776V81.888C308.608 81.68 308.608 81.4799 308.608 81.2719C308.608 81.0639 308.608 80.88 308.608 80.696V80.6239C308.904 76.7999 311.768 75.328 315.272 77.376C316.868 78.3576 318.233 79.6731 319.272 81.232C320.072 76.032 324.256 74.16 329.328 77.12C334.968 80.408 339.536 88.4 339.536 94.976V101.168C339.542 101.652 339.671 102.127 339.912 102.547C340.153 102.967 340.497 103.318 340.912 103.568L345.664 106.384C346.698 106.999 347.553 107.873 348.147 108.92C348.74 109.966 349.051 111.149 349.048 112.352C349.053 112.85 348.927 113.34 348.681 113.772C348.435 114.205 348.079 114.565 347.649 114.816C347.219 115.066 346.73 115.198 346.233 115.198C345.735 115.198 345.246 115.066 344.816 114.816L300.68 89.056C299.504 88.3648 298.529 87.378 297.853 86.1935C297.176 85.009 296.822 83.668 296.824 82.3039C296.826 81.8699 296.941 81.4439 297.158 81.068C297.375 80.6921 297.686 80.3793 298.061 80.1604C298.436 79.9415 298.861 79.8241 299.295 79.8198C299.729 79.8155 300.157 79.9245 300.536 80.1359Z" fill="#E6E6E6"/>
<path d="M294.776 42.504L300 45.504V43.64C300 43.504 300 43.376 300 43.248C300 43.12 300 42.992 300 42.864C300.192 40.392 302.04 39.448 304.304 40.768C305.32 41.3885 306.192 42.2174 306.864 43.2C307.376 39.84 310.064 38.632 313.36 40.544C317 42.664 319.952 47.832 319.952 52.08V56.08C319.947 56.4011 320.026 56.718 320.182 56.9988C320.338 57.2796 320.565 57.5145 320.84 57.68L323.912 59.496C324.579 59.8941 325.131 60.459 325.514 61.135C325.897 61.811 326.098 62.575 326.096 63.352C326.1 63.6739 326.018 63.991 325.859 64.2711C325.701 64.5513 325.471 64.7844 325.193 64.9469C324.915 65.1094 324.599 65.1955 324.277 65.1964C323.955 65.1973 323.639 65.1129 323.36 64.952L294.856 48.312C294.098 47.8661 293.47 47.23 293.034 46.4666C292.597 45.7033 292.368 44.8392 292.368 43.96C292.354 43.672 292.419 43.3857 292.554 43.1313C292.69 42.8769 292.892 42.6639 293.138 42.5147C293.385 42.3656 293.667 42.2858 293.956 42.2839C294.244 42.282 294.527 42.3581 294.776 42.504Z" fill="#E6E6E6"/>
</svg>
